<?xml version="1.0" encoding="utf-8" standalone="no"?>
<!DOCTYPE svg PUBLIC "-//W3C//DTD SVG 1.1//EN" "http://www.w3.org/Graphics/SVG/1.1/DTD/svg11.dtd">
<svg version="1.1" width="1224pt" height="792pt" viewBox="0 0 1224 792" overflow="visible" xmlns="http://www.w3.org/2000/svg">
  <path d="M449.5868,394.929 L447.6068,409.0187 L445.3249,408.6947 L443.942,418.5445 L446.2249,418.8615 L445.8359,421.6184 L485.1389,427.1483 L485.5209,424.3833 L487.8109,424.7073 L489.1928,414.8656 L486.9109,414.5416 L488.8908,400.4509 L491.1728,400.7749 L492.5628,390.9261 L490.2728,390.6092 L490.6618,387.8442 L451.3578,382.3224 L450.9768,385.0873 L448.6868,384.7633 L447.3048,394.6051 z" stroke="#C80000" stroke-width="0.24" fill="none" />
  <path d="M672.6369,373.9272 L670.347,374.2512 L668.965,364.4094 L671.254,364.0854 L669.274,349.9948 L666.985,350.3187 L665.6021,340.47 L667.892,340.153 L667.5031,337.3951 L706.7991,331.8662 L707.188,334.6311 L709.478,334.3071 L710.86,344.1489 L708.571,344.4729 L710.551,358.5625 L712.8399,358.2386 L714.2229,368.0883 L711.933,368.4053 L712.322,371.1692 L673.0249,376.6921 z" stroke="#C80000" stroke-width="0.24" fill="none" />
  <path d="M297.8944,299.8553 L297.8944,297.0693 L300.1983,297.0693 L300.1983,287.1266 L297.8944,287.1266 L297.8944,272.8999 L300.1983,272.8999 L300.1983,262.9572 L297.8944,262.9572 L297.8944,260.1702 L258.2094,260.1702 L258.2094,262.9572 L255.8984,262.9572 L255.8984,272.8999 L258.2094,272.8999 L258.2094,287.1266 L255.8984,287.1266 L255.8984,297.0693 L258.2094,297.0693 L258.2094,299.8553 z" stroke="#C80000" stroke-width="0.24" fill="none" />
  <path d="M783.0249,214.5783 C785.4988,214.5783 787.5038,216.5833 787.5038,219.0572 C787.5038,221.5301 785.4988,223.5361 783.0249,223.5361 C780.551,223.5361 778.546,221.5301 778.546,219.0572 C778.546,216.5833 780.551,214.5783 783.0249,214.5783 z" stroke="#C80000" stroke-width="0.24" fill="none" />
  <path d="M909.8766,272.6189 L907.5656,272.6189 L907.5656,262.6761 L909.8766,262.6761 L909.8766,259.8902 L949.5546,259.8902 L949.5546,262.6761 L951.8655,262.6761 L951.8655,272.6189 L949.5546,272.6189 L949.5546,286.8456 L951.8655,286.8456 L951.8655,296.7883 L949.5546,296.7883 L949.5546,299.5753 L909.8766,299.5753 L909.8766,296.7883 L907.5656,296.7883 L907.5656,286.8456 L909.8766,286.8456 z" stroke="#C80000" stroke-width="0.24" fill="none" />
  <path d="M676.5388,308.9562 L674.5588,294.8666 L676.8408,294.5496 L675.4589,284.6998 L673.1689,285.0238 L672.7879,282.2669 L633.4838,287.7888 L633.8729,290.5467 L631.5909,290.8707 L632.9728,300.7124 L635.2548,300.3884 L637.2347,314.4781 L634.9528,314.8021 L636.3348,324.6449 L638.6248,324.3279 L639.0057,327.0858 L678.3098,321.5629 L677.9208,318.805 L680.2108,318.482 L678.8207,308.6393 z" stroke="#C80000" stroke-width="0.24" fill="none" />
  <path d="M1037.86,298.7325 L1037.86,302.0444 L1050.82,302.0444 L1050.82,298.7325 L1053.772,298.7325 L1053.772,281.4529 L1056.22,281.4529 L1056.22,273.5331 L1053.772,273.5331 L1053.772,263.8853 L1034.908,263.8853 L1034.908,266.1893 L1030.3,266.1893 L1030.3,260.2134 L1010.501,260.2134 L990.7014,260.2134 L990.7014,266.1893 L986.0935,266.1893 L986.0935,263.8853 L967.23,263.8853 L967.23,273.5331 L964.782,273.5331 L964.782,281.4529 L967.23,281.4529 L967.23,298.7325 L970.1819,298.7325 L970.1819,302.0444 L983.1416,302.0444 L983.1416,298.7325 L986.0935,298.7325 L986.0935,296.5005 L990.7014,296.5005 L990.7014,299.8125 L1010.501,299.8125 L1030.3,299.8125 L1030.3,296.5005 L1034.908,296.5005 L1034.908,298.7325 z" stroke="#C80000" stroke-width="0.24" fill="none" />
  <path d="M317.737,350.9239 L320.041,350.9239 L320.041,340.9882 L317.737,340.9882 L317.737,326.7545 L320.041,326.7545 L320.041,316.8188 L317.737,316.8188 L317.737,314.0318 L278.052,314.0318 L278.052,316.8188 L275.741,316.8188 L275.741,326.7545 L278.052,326.7545 L278.052,340.9882 L275.741,340.9882 L275.741,350.9239 L278.052,350.9239 L278.052,353.7098 L317.737,353.7098 z" stroke="#C80000" stroke-width="0.24" fill="none" />
  <path d="M856.0151,272.619 L856.0151,286.8457 L853.7041,286.8457 L853.7041,296.7884 L856.0151,296.7884 L856.0151,299.5744 L895.7001,299.5744 L895.7001,296.7884 L898.011,296.7884 L898.011,286.8457 L895.7001,286.8457 L895.7001,272.619 L898.011,272.619 L898.011,262.6763 L895.7001,262.6763 L895.7001,259.8893 L856.0151,259.8893 L856.0151,262.6763 L853.7041,262.6763 L853.7041,272.619 z" stroke="#C80000" stroke-width="0.24" fill="none" />
  <path d="M560.7539,599.4634 C562.8369,599.7814 564.9108,599.9264 567.0178,599.8984 L641.027,599.8984 C643.1339,599.9264 645.2078,599.7814 647.2908,599.4634 L861.1976,569.4041 L865.1425,569.1281 L1096.841,569.1281 C1112.495,569.1281 1125.186,556.4374 1125.186,540.7828 L1125.186,234.6472 C1125.186,218.9926 1112.495,206.3009 1096.841,206.3009 L125.0344,206.3009 C109.3798,206.3009 96.68913,218.9926 96.68913,234.6472 L96.68913,540.7828 C96.68913,556.4374 109.3798,569.1281 125.0344,569.1281 L342.9022,569.1281 L346.8471,569.4041 z" stroke="#C80000" stroke-width="0.24" fill="none" />
  <path d="M840.3412,404.9726 L842.6312,404.6486 L841.2412,394.8069 L838.9593,395.1309 L836.9793,381.0402 L839.2613,380.7162 L837.8793,370.8744 L835.5894,371.1914 L835.2074,368.4335 L795.9044,373.9564 L796.2933,376.7203 L794.0104,377.0373 L795.3933,386.8791 L797.6753,386.563 L799.6622,400.6527 L797.3733,400.9767 L798.7552,410.8185 L801.0452,410.4945 L801.4332,413.2524 L840.7302,407.7305 z" stroke="#C80000" stroke-width="0.24" fill="none" />
  <path d="M762.6411,432.7784 L723.345,438.3002 L723.733,441.0651 L721.444,441.3821 L722.826,451.2239 L725.1159,450.9069 L727.0959,464.9976 L724.806,465.3216 L726.1889,475.1633 L728.4778,474.8393 L728.8668,477.5973 L768.1629,472.0744 L767.7739,469.3174 L770.0638,468.9935 L768.6819,459.1507 L766.3919,459.4747 L764.412,445.385 L766.7019,445.061 L765.312,435.2193 L763.03,435.5363 z" stroke="#C80000" stroke-width="0.24" fill="none" />
  <path d="M1016.412,458.64 L1018.723,458.64 L1018.723,461.4259 L1058.408,461.4259 L1058.408,458.64 L1060.712,458.64 L1060.712,448.6973 L1058.408,448.6973 L1058.408,434.4706 L1060.712,434.4706 L1060.712,424.5268 L1058.408,424.5268 L1058.408,421.7409 L1018.723,421.7409 L1018.723,424.5268 L1016.412,424.5268 L1016.412,434.4706 L1018.723,434.4706 L1018.723,448.6973 L1016.412,448.6973 z" stroke="#C80000" stroke-width="0.24" fill="none" />
  <path d="M134.3063,514.8049 C134.3063,515.5879 134.9413,516.2219 135.7233,516.2219 L168.5885,516.2219 C169.3715,516.2219 170.0065,515.5879 170.0065,514.8049 L170.0065,407.0895 C170.0065,406.3076 169.3715,405.6726 168.5885,405.6726 L135.7233,405.6726 C134.9413,405.6726 134.3063,406.3076 134.3063,407.0895 z" stroke="#C80000" stroke-width="0.24" fill="none" />
  <path d="M950.4116,370.6725 L950.4116,367.8866 L910.7266,367.8866 L910.7266,370.6725 L908.4156,370.6725 L908.4156,380.6153 L910.7266,380.6153 L910.7266,394.843 L908.4156,394.843 L908.4156,404.7857 L910.7266,404.7857 L910.7266,407.5717 L950.4116,407.5717 L950.4116,404.7857 L952.7155,404.7857 L952.7155,394.843 L950.4116,394.843 L950.4116,380.6153 L952.7155,380.6153 L952.7155,370.6725 z" stroke="#C80000" stroke-width="0.24" fill="none" />
  <path d="M890.5958,326.7542 L888.2919,326.7542 L888.2919,316.8185 L890.5958,316.8185 L890.5958,314.0325 L930.2809,314.0325 L930.2809,316.8185 L932.5918,316.8185 L932.5918,326.7542 L930.2809,326.7542 L930.2809,340.9879 L932.5918,340.9879 L932.5918,350.9236 L930.2809,350.9236 L930.2809,353.7105 L890.5958,353.7105 L890.5958,350.9236 L888.2919,350.9236 L888.2919,340.9879 L890.5958,340.9879 z" stroke="#C80000" stroke-width="0.24" fill="none" />
  <path d="M244.0328,299.8553 L244.0328,297.0693 L246.3437,297.0693 L246.3437,287.1266 L244.0328,287.1266 L244.0328,272.8999 L246.3437,272.8999 L246.3437,262.9572 L244.0328,262.9572 L244.0328,260.1702 L204.3478,260.1702 L204.3478,262.9572 L202.0438,262.9572 L202.0438,272.8999 L204.3478,272.8999 L204.3478,287.1266 L202.0438,287.1266 L202.0438,297.0693 L204.3478,297.0693 L204.3478,299.8553 z" stroke="#C80000" stroke-width="0.24" fill="none" />
  <path d="M399.3178,456.7751 L401.2978,442.6855 L403.5877,443.0095 L404.9697,433.1597 L402.6797,432.8427 L403.0687,430.0858 L363.7727,424.5559 L363.3837,427.3209 L361.1017,426.9969 L359.7118,436.8387 L362.0017,437.1626 L360.0218,451.2533 L357.7318,450.9293 L356.3499,460.778 L358.6388,461.0951 L358.2498,463.86 L397.5469,469.3819 L397.9359,466.6169 L400.2248,466.9409 L401.6078,457.0992 z" stroke="#C80000" stroke-width="0.24" fill="none" />
  <path d="M382.3048,385.7132 L384.5948,386.0302 L385.9767,376.1874 L383.6948,375.8644 L384.0828,373.1065 L344.7798,367.5836 L344.3907,370.3416 L342.1088,370.0246 L340.7258,379.8673 L343.0088,380.1913 L341.0288,394.281 L338.7459,393.957 L337.3569,403.7987 L339.6459,404.1227 L339.2569,406.8807 L378.5539,412.4025 L378.9429,409.6456 L381.2319,409.9696 L382.6148,400.1198 L380.3249,399.8028 z" stroke="#C80000" stroke-width="0.24" fill="none" />
  <path d="M118.2236,229.6267 C116.0467,230.8007 113.3297,229.9877 112.1558,227.8108 C110.9818,225.6338 111.7948,222.9169 113.9717,221.7429 C116.1487,220.569 118.8656,221.3819 120.0396,223.5589 C121.2135,225.7358 120.4006,228.4528 118.2236,229.6267 z" stroke="#C80000" stroke-width="0.24" fill="none" />
  <path d="M438.8506,214.5783 C436.3776,214.5783 434.3716,216.5833 434.3716,219.0572 C434.3716,221.5301 436.3776,223.5361 438.8506,223.5361 C441.3245,223.5361 443.3294,221.5301 443.3294,219.0572 C443.3294,216.5833 441.3245,214.5783 438.8506,214.5783 z" stroke="#C80000" stroke-width="0.24" fill="none" />
  <path d="M337.1947,550.9352 C334.7218,550.9352 332.7158,552.9402 332.7158,555.4141 C332.7158,557.8871 334.7218,559.892 337.1947,559.892 C339.6686,559.892 341.6736,557.8871 341.6736,555.4141 C341.6736,552.9402 339.6686,550.9352 337.1947,550.9352 z" stroke="#C80000" stroke-width="0.24" fill="none" />
  <path d="M413.3143,458.6256 L411.0244,458.3016 L409.6424,468.1434 L411.9243,468.4674 L411.5433,471.2253 L450.8394,476.7472 L451.2284,473.9902 L453.5103,474.3142 L454.9003,464.4645 L452.6103,464.1475 L454.5903,450.0578 L456.8802,450.3748 L458.2622,440.532 L455.9733,440.2081 L456.3622,437.4511 L417.0652,431.9283 L416.6762,434.6862 L414.3872,434.3692 L413.0043,444.212 L415.2943,444.5359 z" stroke="#C80000" stroke-width="0.24" fill="none" />
  <path d="M944.4573,421.7414 L944.4573,424.5273 L942.1464,424.5273 L942.1464,434.4701 L944.4573,434.4701 L944.4573,448.6967 L942.1464,448.6967 L942.1464,458.6405 L944.4573,458.6405 L944.4573,461.4265 L984.1424,461.4265 L984.1424,458.6405 L986.4464,458.6405 L986.4464,448.6967 L984.1424,448.6967 L984.1424,434.4701 L986.4464,434.4701 L986.4464,424.5273 L984.1424,424.5273 L984.1424,421.7414 z" stroke="#C80000" stroke-width="0.24" fill="none" />
  <path d="M1038.278,488.3246 L1040.589,488.3246 L1040.589,478.3818 L1038.278,478.3818 L1038.278,475.5959 L998.5931,475.5959 L998.5931,478.3818 L996.2892,478.3818 L996.2892,488.3246 L998.5931,488.3246 L998.5931,502.5583 L996.2892,502.5583 L996.2892,512.494 L998.5931,512.494 L998.5931,515.2809 L1038.278,515.2809 L1038.278,512.494 L1040.589,512.494 L1040.589,502.5583 L1038.278,502.5583 z" stroke="#C80000" stroke-width="0.24" fill="none" />
  <path d="M813.6588,316.8471 L774.3627,322.369 L774.7507,325.127 L772.4618,325.4509 L773.8508,335.2927 L776.1337,334.9687 L778.1136,349.0664 L775.8307,349.3834 L777.2137,359.2321 L779.5026,358.9081 L779.8846,361.666 L819.1887,356.1432 L818.7997,353.3863 L821.0816,353.0623 L819.6996,343.2205 L817.4167,343.5365 L815.4368,329.4468 L817.7197,329.1299 L816.3367,319.2811 L814.0478,319.6051 z" stroke="#C80000" stroke-width="0.24" fill="none" />
  <path d="M691.9103,316.9552 L689.6204,317.2792 L688.2384,307.4295 L690.5284,307.1135 L688.5484,293.0228 L686.2585,293.3398 L684.8765,283.498 L687.1655,283.1741 L686.7765,280.4161 L726.0735,274.8943 L726.4625,277.6512 L728.7515,277.3352 L730.1344,287.177 L727.8445,287.5009 L729.8244,301.5906 L732.1144,301.2666 L733.4963,311.1094 L731.2064,311.4334 L731.5954,314.1903 L692.2993,319.7132 z" stroke="#C80000" stroke-width="0.24" fill="none" />
  <path d="M764.4334,336.4951 L763.0514,326.6533 L760.7615,326.9773 L760.3735,324.2124 L721.0764,329.7422 L721.4654,332.4992 L719.1755,332.8162 L720.5585,342.6659 L722.8474,342.3419 L724.8273,356.4316 L722.5384,356.7556 L723.9203,366.5974 L726.2103,366.2733 L726.5993,369.0383 L765.8953,363.5164 L765.5063,360.7515 L767.7963,360.4345 L766.4133,350.5857 L764.1244,350.9097 L762.1445,336.8191 z" stroke="#C80000" stroke-width="0.24" fill="none" />
  <path d="M142.6865,302.1206 L180.9539,302.1206 C181.7369,302.1206 182.3719,301.4856 182.3719,300.7036 L182.3719,258.1833 C182.3719,257.4013 181.7369,256.7663 180.9539,256.7663 L142.6865,256.7663 C141.9035,256.7663 141.2695,257.4013 141.2695,258.1833 L141.2695,300.7036 C141.2695,301.4856 141.9035,302.1206 142.6865,302.1206 z" stroke="#C80000" stroke-width="0.24" fill="none" />
  <path d="M984.1426,350.9239 L986.4466,350.9239 L986.4466,340.9882 L984.1426,340.9882 L984.1426,326.7545 L986.4466,326.7545 L986.4466,316.8188 L984.1426,316.8188 L984.1426,314.0318 L944.4576,314.0318 L944.4576,316.8188 L942.1467,316.8188 L942.1467,326.7545 L944.4576,326.7545 L944.4576,340.9882 L942.1467,340.9882 L942.1467,350.9239 L944.4576,350.9239 L944.4576,353.7098 L984.1426,353.7098 z" stroke="#C80000" stroke-width="0.24" fill="none" />
  <path d="M270.1103,478.3813 L270.1103,475.5954 L309.7954,475.5954 L309.7954,478.3813 L312.1064,478.3813 L312.1064,488.3241 L309.7954,488.3241 L309.7954,502.5587 L312.1064,502.5587 L312.1064,512.4945 L309.7954,512.4945 L309.7954,515.2805 L270.1103,515.2805 L270.1103,512.4945 L267.7994,512.4945 L267.7994,502.5587 L270.1103,502.5587 L270.1103,488.3241 L267.7994,488.3241 L267.7994,478.3813 z" stroke="#C80000" stroke-width="0.24" fill="none" />
  <path d="M856.5837,394.8427 L854.2728,394.8427 L854.2728,404.7854 L856.5837,404.7854 L856.5837,407.5714 L896.2688,407.5714 L896.2688,404.7854 L898.5807,404.7854 L898.5807,394.8427 L896.2688,394.8427 L896.2688,380.616 L898.5807,380.616 L898.5807,370.6732 L896.2688,370.6732 L896.2688,367.8863 L856.5837,367.8863 L856.5837,370.6732 L854.2728,370.6732 L854.2728,380.616 L856.5837,380.616 z" stroke="#C80000" stroke-width="0.24" fill="none" />
  <path d="M658.4529,450.5257 L659.8348,460.3675 L657.5459,460.6925 L659.5258,474.7821 L661.8148,474.4581 L663.1978,484.2999 L660.9148,484.6239 L661.2968,487.3818 L622.0007,492.9037 L621.6118,490.1458 L619.3288,490.4697 L617.9468,480.628 L620.2288,480.304 L618.2488,466.2143 L615.9599,466.5303 L614.5769,456.6886 L616.8669,456.3716 L616.4778,453.6076 L655.7749,448.0848 L656.1639,450.8427 z" stroke="#C80000" stroke-width="0.24" fill="none" />
  <path d="M543.9469,395.4974 L504.6509,389.9756 L504.2619,392.7405 L501.9729,392.4165 L500.59,402.2583 L502.8799,402.5823 L500.9,416.6729 L498.61,416.3489 L497.2281,426.1977 L499.517,426.5147 L499.129,429.2716 L538.425,434.8015 L538.814,432.0366 L541.103,432.3605 L542.486,422.5188 L540.196,422.1948 L542.176,408.1051 L544.4659,408.4281 L545.8479,398.5794 L543.559,398.2624 z" stroke="#C80000" stroke-width="0.24" fill="none" />
  <path d="M932.5921,458.6398 L932.5921,448.6971 L930.2812,448.6971 L930.2812,434.4704 L932.5921,434.4704 L932.5921,424.5276 L930.2812,424.5276 L930.2812,421.7407 L890.5961,421.7407 L890.5961,424.5276 L888.2922,424.5276 L888.2922,434.4704 L890.5961,434.4704 L890.5961,448.6971 L888.2922,448.6971 L888.2922,458.6398 L890.5961,458.6398 L890.5961,461.4268 L930.2812,461.4268 L930.2812,458.6398 z" stroke="#C80000" stroke-width="0.24" fill="none" />
  <path d="M252.7948,350.9239 L250.4838,350.9239 L250.4838,353.7098 L210.7988,353.7098 L210.7988,350.9239 L208.4878,350.9239 L208.4878,340.9882 L210.7988,340.9882 L210.7988,326.7545 L208.4878,326.7545 L208.4878,316.8188 L210.7988,316.8188 L210.7988,314.0318 L250.4838,314.0318 L250.4838,316.8188 L252.7948,316.8188 L252.7948,326.7545 L250.4838,326.7545 L250.4838,340.9882 L252.7948,340.9882 z" stroke="#C80000" stroke-width="0.24" fill="none" />
  <path d="M210.7983,394.8427 L208.4874,394.8427 L208.4874,404.7854 L210.7983,404.7854 L210.7983,407.5714 L250.4833,407.5714 L250.4833,404.7854 L252.7953,404.7854 L252.7953,394.8427 L250.4833,394.8427 L250.4833,380.616 L252.7953,380.616 L252.7953,370.6732 L250.4833,370.6732 L250.4833,367.8863 L210.7983,367.8863 L210.7983,370.6732 L208.4874,370.6732 L208.4874,380.616 L210.7983,380.616 z" stroke="#C80000" stroke-width="0.24" fill="none" />
  <path d="M351.749,294.2326 L354.0599,294.2326 L354.0599,284.2968 L351.749,284.2968 L351.749,270.0632 L354.0599,270.0632 L354.0599,260.1274 L351.749,260.1274 L351.749,257.3405 L312.0639,257.3405 L312.0639,260.1274 L309.752,260.1274 L309.752,270.0632 L312.0639,270.0632 L312.0639,284.2968 L309.752,284.2968 L309.752,294.2326 L312.0639,294.2326 L312.0639,297.0185 L351.749,297.0185 z" stroke="#C80000" stroke-width="0.24" fill="none" />
  <path d="M742.9136,309.9067 L745.2026,309.5827 L745.5916,312.3477 L784.8886,306.8248 L784.4996,304.0609 L786.7896,303.7439 L785.4066,293.8941 L783.1176,294.2181 L781.1377,280.1284 L783.4196,279.8044 L782.0377,269.9627 L779.7547,270.2867 L779.3657,267.5217 L740.0696,273.0506 L740.4517,275.8085 L738.1687,276.1255 L739.5517,285.9743 L741.8406,285.6503 L743.8206,299.741 L741.5316,300.0649 z" stroke="#C80000" stroke-width="0.24" fill="none" />
  <path d="M303.8414,448.6971 L301.5375,448.6971 L301.5375,458.6398 L303.8414,458.6398 L303.8414,461.4268 L343.5265,461.4268 L343.5265,458.6398 L345.8374,458.6398 L345.8374,448.6971 L343.5265,448.6971 L343.5265,434.4704 L345.8374,434.4704 L345.8374,424.5276 L343.5265,424.5276 L343.5265,421.7407 L303.8414,421.7407 L303.8414,424.5276 L301.5375,424.5276 L301.5375,434.4704 L303.8414,434.4704 z" stroke="#C80000" stroke-width="0.24" fill="none" />
  <path d="M1103.652,545.8027 C1105.829,544.6287 1108.546,545.4417 1109.72,547.6187 C1110.894,549.7956 1110.081,552.5125 1107.904,553.6865 C1105.727,554.8605 1103.01,554.0475 1101.836,551.8705 C1100.662,549.6936 1101.475,546.9766 1103.652,545.8027 z" stroke="#C80000" stroke-width="0.24" fill="none" />
  <path d="M1103.652,229.6267 C1105.829,230.8007 1108.546,229.9877 1109.72,227.8108 C1110.894,225.6338 1110.081,222.9169 1107.904,221.7429 C1105.727,220.569 1103.01,221.3819 1101.836,223.5589 C1100.662,225.7358 1101.475,228.4528 1103.652,229.6267 z" stroke="#C80000" stroke-width="0.24" fill="none" />
  <path d="M511.8367,448.1859 L509.5468,447.8619 L509.9358,445.1039 L470.6387,439.5821 L470.2507,442.34 L467.9608,442.023 L466.5788,451.8648 L468.8677,452.1888 L466.8878,466.2784 L464.5988,465.9554 L463.2159,475.7972 L465.4988,476.1212 L465.1168,478.8781 L504.4129,484.401 L504.8019,481.6431 L507.0848,481.967 L508.4668,472.1183 L506.1848,471.8013 L508.1648,457.7116 L510.4537,458.0276 z" stroke="#C80000" stroke-width="0.24" fill="none" />
  <path d="M930.281,515.2802 L930.281,512.4943 L932.5919,512.4943 L932.5919,502.5586 L930.281,502.5586 L930.281,488.3249 L932.5919,488.3249 L932.5919,478.3821 L930.281,478.3821 L930.281,475.5952 L890.5959,475.5952 L890.5959,478.3821 L888.292,478.3821 L888.292,488.3249 L890.5959,488.3249 L890.5959,502.5586 L888.292,502.5586 L888.292,512.4943 L890.5959,512.4943 L890.5959,515.2802 z" stroke="#C80000" stroke-width="0.24" fill="none" />
  <path d="M797.1065,292.0869 L795.1265,277.9972 L792.8366,278.3212 L791.4547,268.4714 L793.7446,268.1544 L793.3556,265.3975 L832.6516,259.8676 L833.0406,262.6326 L835.3306,262.3086 L836.7125,272.1513 L834.4226,272.4753 L836.4025,286.565 L838.6925,286.241 L840.0745,296.0908 L837.7925,296.4067 L838.1745,299.1717 L798.8774,304.6945 L798.4885,301.9296 L796.2065,302.2536 L794.8165,292.4108 z" stroke="#C80000" stroke-width="0.24" fill="none" />
  <path d="M867.9471,551.9426 C870.421,551.9426 872.426,553.9476 872.426,556.4215 C872.426,558.8945 870.421,560.9004 867.9471,560.9004 C865.4731,560.9004 863.4681,558.8945 863.4681,556.4215 C863.4681,553.9476 865.4731,551.9426 867.9471,551.9426 z" stroke="#C80000" stroke-width="0.24" fill="none" />
  <path d="M436.9801,383.2365 L437.3691,380.4785 L398.0721,374.9566 L397.6831,377.7146 L395.3941,377.3906 L394.0121,387.2393 L396.3011,387.5563 L394.3212,401.646 L392.0322,401.33 L390.6492,411.1718 L392.9392,411.4958 L392.5502,414.2537 L431.8463,419.7755 L432.2352,417.0176 L434.5252,417.3346 L435.9071,407.4929 L433.6182,407.1689 L435.5981,393.0782 L437.8871,393.4022 L439.2701,383.5604 z" stroke="#C80000" stroke-width="0.24" fill="none" />
  <path d="M834.4303,424.5273 L836.7412,424.5273 L836.7412,421.7414 L876.4263,421.7414 L876.4263,424.5273 L878.7372,424.5273 L878.7372,434.4701 L876.4263,434.4701 L876.4263,448.6967 L878.7372,448.6967 L878.7372,458.6405 L876.4263,458.6405 L876.4263,461.4265 L836.7412,461.4265 L836.7412,458.6405 L834.4303,458.6405 L834.4303,448.6967 L836.7412,448.6967 L836.7412,434.4701 L834.4303,434.4701 z" stroke="#C80000" stroke-width="0.24" fill="none" />
  <path d="M118.2236,545.8027 C116.0467,544.6287 113.3297,545.4417 112.1558,547.6187 C110.9818,549.7956 111.7948,552.5125 113.9717,553.6865 C116.1487,554.8605 118.8656,554.0475 120.0396,551.8705 C121.2135,549.6936 120.4006,546.9766 118.2236,545.8027 z" stroke="#C80000" stroke-width="0.24" fill="none" />
  <path d="M984.1424,475.5954 L944.4573,475.5954 L944.4573,478.3813 L942.1464,478.3813 L942.1464,488.3241 L944.4573,488.3241 L944.4573,502.5587 L942.1464,502.5587 L942.1464,512.4945 L944.4573,512.4945 L944.4573,515.2805 L984.1424,515.2805 L984.1424,512.4945 L986.4464,512.4945 L986.4464,502.5587 L984.1424,502.5587 L984.1424,488.3241 L986.4464,488.3241 L986.4464,478.3813 L984.1424,478.3813 z" stroke="#C80000" stroke-width="0.24" fill="none" />
  <path d="M516.221,483.4504 L518.5109,483.7744 L518.1219,486.5323 L557.418,492.0542 L557.807,489.2963 L560.0969,489.6203 L561.4789,479.7715 L559.189,479.4545 L561.1689,465.3648 L563.4589,465.6808 L564.8408,455.8391 L562.5519,455.5151 L562.9409,452.7581 L523.6438,447.2353 L523.2548,449.9932 L520.9659,449.6762 L519.5829,459.518 L521.8729,459.842 L519.8929,473.9326 L517.603,473.6086 z" stroke="#C80000" stroke-width="0.24" fill="none" />
  <path d="M743.0077,384.086 L740.7178,384.41 L742.0997,394.2518 L744.3896,393.9278 L746.3696,408.0255 L744.0797,408.3424 L745.4626,418.1842 L747.7516,417.8672 L748.1406,420.6251 L787.4376,415.1033 L787.0486,412.3453 L789.3376,412.0213 L787.9556,402.1796 L785.6656,402.4956 L783.6857,388.4059 L785.9756,388.0889 L784.5937,378.2401 L782.3038,378.5641 L781.9148,375.8062 L742.6187,381.3281 z" stroke="#C80000" stroke-width="0.24" fill="none" />
  <path d="M777.019,433.6926 L774.729,434.0166 L776.119,443.8584 L778.4009,443.5344 L780.3809,457.625 L778.0989,457.949 L779.4809,467.7908 L781.7709,467.4738 L782.1528,470.2317 L821.4559,464.7089 L821.0669,461.9519 L823.3499,461.6279 L821.9669,451.7862 L819.6849,452.1022 L817.698,438.0125 L819.9869,437.6885 L818.605,427.8468 L816.3151,428.1707 L815.9271,425.4128 L776.63,430.9347 z" stroke="#C80000" stroke-width="0.24" fill="none" />
  <path d="M281.9759,380.6158 L284.2868,380.6158 L284.2868,394.8425 L281.9759,394.8425 L281.9759,404.7852 L284.2868,404.7852 L284.2868,407.5721 L323.9718,407.5721 L323.9718,404.7852 L326.2828,404.7852 L326.2828,394.8425 L323.9718,394.8425 L323.9718,380.6158 L326.2828,380.6158 L326.2828,370.673 L323.9718,370.673 L323.9718,367.8871 L284.2868,367.8871 L284.2868,370.673 L281.9759,370.673 z" stroke="#C80000" stroke-width="0.24" fill="none" />
  <path d="M1011.919,316.8181 L1011.919,314.0321 L1051.604,314.0321 L1051.604,316.8181 L1053.916,316.8181 L1053.916,326.7538 L1051.604,326.7538 L1051.604,340.9885 L1053.916,340.9885 L1053.916,350.9242 L1051.604,350.9242 L1051.604,353.7101 L1011.919,353.7101 L1011.919,350.9242 L1009.609,350.9242 L1009.609,340.9885 L1011.919,340.9885 L1011.919,326.7538 L1009.609,326.7538 L1009.609,316.8181 z" stroke="#C80000" stroke-width="0.24" fill="none" />
  <path d="M427.3826,351.8959 L429.3626,337.8062 L431.6526,338.1302 L433.0345,328.2875 L430.7446,327.9635 L431.1335,325.2065 L391.8375,319.6837 L391.4485,322.4416 L389.1586,322.1176 L387.7766,331.9594 L390.0666,332.2834 L388.0866,346.374 L385.7967,346.057 L384.4147,355.8988 L386.7036,356.2158 L386.3146,358.9807 L425.6117,364.5026 L426.0007,361.7447 L428.2826,362.0616 L429.6726,352.2199 z" stroke="#C80000" stroke-width="0.24" fill="none" />
  <path d="M732.4014,395.743 L731.0195,385.8933 L728.7296,386.2173 L728.3416,383.4593 L689.0445,388.9822 L689.4335,391.7391 L687.1436,392.0631 L688.5266,401.9059 L690.8155,401.5819 L692.7954,415.6786 L690.5065,415.9955 L691.8884,425.8373 L694.1784,425.5213 L694.5674,428.2783 L733.8634,422.7564 L733.4744,419.9984 L735.7644,419.6745 L734.3814,409.8327 L732.0925,410.1497 L730.1125,396.059 z" stroke="#C80000" stroke-width="0.24" fill="none" />
  <path d="M244.9255,488.3245 L244.9255,478.3817 L242.6145,478.3817 L242.6145,475.5958 L202.9365,475.5958 L202.9365,478.3817 L200.6255,478.3817 L200.6255,488.3245 L202.9365,488.3245 L202.9365,502.5591 L200.6255,502.5591 L200.6255,512.4939 L202.9365,512.4939 L202.9365,515.2808 L242.6145,515.2808 L242.6145,512.4939 L244.9255,512.4939 L244.9255,502.5591 L242.6145,502.5591 L242.6145,488.3245 z" stroke="#C80000" stroke-width="0.24" fill="none" />
  <path d="M676.827,403.4319 L679.1089,403.1079 L677.727,393.2662 L675.437,393.5902 L675.056,390.8253 L635.752,396.3541 L636.141,399.1121 L633.8511,399.429 L635.241,409.2778 L637.5229,408.9538 L639.5029,423.0445 L637.2209,423.3685 L638.6029,433.2102 L640.8929,432.8862 L641.2739,435.6512 L680.5779,430.1283 L680.1889,427.3644 L682.4709,427.0474 L681.0889,417.1976 L678.8069,417.5216 z" stroke="#C80000" stroke-width="0.24" fill="none" />
  <path d="M709.3482,440.4318 L670.0522,445.9536 L670.4402,448.7186 L668.1512,449.0356 L669.5332,458.8773 L671.8231,458.5613 L673.8031,472.651 L671.5131,472.975 L672.9031,482.8167 L675.1851,482.4927 L675.574,485.2507 L714.8701,479.7278 L714.4891,476.9709 L716.7711,476.6469 L715.3891,466.8041 L713.0991,467.1281 L711.1192,453.0385 L713.4091,452.7144 L712.0262,442.8727 L709.7372,443.1887 z" stroke="#C80000" stroke-width="0.24" fill="none" />
  <path d="M657.2577,366.2162 L655.2777,352.1266 L657.5677,351.8026 L656.1847,341.9598 L653.8958,342.2838 L653.5068,339.5189 L614.2097,345.0488 L614.5987,347.8067 L612.3098,348.1227 L613.6917,357.9724 L615.9817,357.6485 L617.9616,371.7381 L615.6787,372.0621 L617.0616,381.9049 L619.3436,381.5809 L619.7326,384.3458 L659.0286,378.8229 L658.6476,376.058 L660.9296,375.742 L659.5476,365.8922 z" stroke="#C80000" stroke-width="0.24" fill="none" />
  <path d="M255.8981,427.7601 L260.506,427.7601 L260.506,425.4561 L279.3695,425.4561 L279.3695,435.1039 L281.8174,435.1039 L281.8174,443.0237 L279.3695,443.0237 L279.3695,460.3033 L276.4176,460.3033 L276.4176,463.6152 L263.4579,463.6152 L263.4579,460.3033 L260.506,460.3033 L260.506,458.0713 L255.8981,458.0713 L255.8981,461.3832 L236.0986,461.3832 L216.2991,461.3832 L216.2991,458.0713 L211.6911,458.0713 L211.6911,460.3033 L208.7392,460.3033 L208.7392,463.6152 L195.7795,463.6152 L195.7795,460.3033 L192.8276,460.3033 L192.8276,443.0237 L190.3797,443.0237 L190.3797,435.1039 L192.8276,435.1039 L192.8276,425.4561 L211.6911,425.4561 L211.6911,427.7601 L216.2991,427.7601 L216.2991,421.7842 L236.0986,421.7842 L255.8981,421.7842 z" stroke="#C80000" stroke-width="0.24" fill="none" />
  <path d="M1042.281,404.2166 L1037.673,404.2166 L1037.673,407.5285 L1017.874,407.5285 L998.074,407.5285 L998.074,404.2166 L993.4661,404.2166 L993.4661,406.4486 L990.5142,406.4486 L990.5142,409.7605 L977.5545,409.7605 L977.5545,406.4486 L974.6026,406.4486 L974.6026,389.169 L972.1547,389.169 L972.1547,381.2492 L974.6026,381.2492 L974.6026,371.6014 L993.4661,371.6014 L993.4661,373.9054 L998.074,373.9054 L998.074,367.9295 L1017.874,367.9295 L1037.673,367.9295 L1037.673,373.9054 L1042.281,373.9054 L1042.281,371.6014 L1061.145,371.6014 L1061.145,381.2492 L1063.592,381.2492 L1063.592,389.169 L1061.145,389.169 L1061.145,406.4486 L1058.193,406.4486 L1058.193,409.7605 L1045.233,409.7605 L1045.233,406.4486 L1042.281,406.4486 z" stroke="#C80000" stroke-width="0.24" fill="none" />
  <path d="M573.9129,293.6998 L571.6229,293.3828 L572.012,290.6179 L532.7159,285.096 L532.3269,287.861 L530.037,287.537 L528.655,297.3787 L530.9449,297.7027 L528.965,311.7934 L526.675,311.4694 L525.2931,321.3181 L527.575,321.6351 L527.1931,324.4001 L566.4901,329.9219 L566.8791,327.157 L569.161,327.481 L570.551,317.6392 L568.261,317.3152 L570.241,303.2256 L572.5309,303.5496 z" stroke="#C80000" stroke-width="0.24" fill="none" />
  <path d="M460.2929,312.1385 L459.9109,314.8965 L420.6079,309.3736 L420.9969,306.6167 L418.714,306.2927 L420.0969,296.4499 L422.3788,296.7669 L424.3658,282.6773 L422.0769,282.3603 L423.4588,272.5105 L425.7478,272.8345 L426.1368,270.0776 L465.4338,275.5995 L465.0448,278.3574 L467.3348,278.6814 L465.9448,288.5231 L463.6629,288.1991 L461.6819,302.2968 L463.9648,302.6128 L462.5829,312.4555 z" stroke="#C80000" stroke-width="0.24" fill="none" />
  <path d="M475.3622,289.7255 L476.7521,279.8837 L479.0341,280.2077 L479.4231,277.4428 L518.7191,282.9647 L518.3301,285.7296 L520.6201,286.0466 L519.2381,295.8954 L516.9482,295.5714 L514.9682,309.662 L517.2582,309.986 L515.8752,319.8278 L513.5862,319.5038 L513.1973,322.2687 L473.9002,316.7458 L474.2892,313.9819 L472.0003,313.6649 L473.3822,303.8152 L475.6722,304.1392 L477.6521,290.0495 z" stroke="#C80000" stroke-width="0.24" fill="none" />
  <path d="M333.0221,351.6078 L372.3192,357.1297 L372.7072,354.3727 L374.9971,354.6967 L376.3791,344.847 L374.0901,344.53 L376.0701,330.4403 L378.359,330.7573 L379.742,320.9156 L377.459,320.5916 L377.841,317.8336 L338.544,312.3117 L338.156,315.0687 L335.873,314.7447 L334.4841,324.5945 L336.773,324.9105 L334.7931,339.0081 L332.5042,338.6841 L331.1212,348.5259 L333.4111,348.8499 z" stroke="#C80000" stroke-width="0.24" fill="none" />
  <path d="M369.0937,289.4017 L366.8037,289.0777 L365.4218,298.9195 L367.7107,299.2435 L367.3217,302.0014 L406.6187,307.5233 L407.0078,304.7663 L409.2967,305.0903 L410.6796,295.2476 L408.3897,294.9236 L410.3697,280.8339 L412.6596,281.1509 L414.0416,271.3081 L411.7516,270.9842 L412.1406,268.2272 L372.8446,262.7043 L372.4556,265.4623 L370.1656,265.1453 L368.7837,274.9881 L371.0736,275.312 z" stroke="#C80000" stroke-width="0.24" fill="none" />
  <path d="M491.2737,370.9176 L492.6557,361.0759 L494.9456,361.3999 L496.9256,347.3092 L494.6436,346.9852 L496.0256,337.1435 L498.3075,337.4604 L498.6965,334.7025 L537.9936,340.2254 L537.6116,342.9823 L539.8935,343.3063 L538.5115,353.1481 L536.2216,352.8321 L534.2416,366.9217 L536.5316,367.2457 L535.1497,377.0875 L532.8597,376.7635 L532.4707,379.5214 L493.1747,373.9996 L493.5636,371.2416 z" stroke="#C80000" stroke-width="0.24" fill="none" />
  <path d="M442.7326,329.7708 L441.3506,339.6126 L443.6396,339.9366 L441.6596,354.0273 L439.3707,353.7103 L437.9877,363.552 L440.2706,363.869 L439.8886,366.6339 L479.1847,372.1558 L479.5737,369.3989 L481.8566,369.7149 L483.2456,359.8731 L480.9567,359.5491 L482.9366,345.4594 L485.2256,345.7834 L486.6085,335.9407 L484.3186,335.6167 L484.7076,332.8597 L445.4105,327.3369 L445.0225,330.0948 z" stroke="#C80000" stroke-width="0.24" fill="none" />
  <path d="M876.4843,326.7542 L878.7952,326.7542 L878.7952,316.8185 L876.4843,316.8185 L876.4843,314.0325 L836.7993,314.0325 L836.7993,316.8185 L834.4873,316.8185 L834.4873,326.7542 L836.7993,326.7542 L836.7993,340.9879 L834.4873,340.9879 L834.4873,350.9236 L836.7993,350.9236 L836.7993,353.7105 L876.4843,353.7105 L876.4843,350.9236 L878.7952,350.9236 L878.7952,340.9879 L876.4843,340.9879 z" stroke="#C80000" stroke-width="0.24" fill="none" />
  <path d="M1121.973,184.952 C1123.125,184.952 1123.914,184.5163 1124.342,183.6447 C1124.77,182.7731 1124.984,181.8035 1124.984,180.7358 C1124.984,179.771 1124.829,178.9862 1124.521,178.3816 C1124.032,177.4297 1123.189,176.9537 1121.993,176.9537 C1120.931,176.9537 1120.16,177.3589 1119.677,178.1693 C1119.195,178.9798 1118.953,179.9575 1118.953,181.1024 C1118.953,182.2023 1119.195,183.1189 1119.677,183.8521 C1120.16,184.5854 1120.925,184.952 1121.973,184.952 z" stroke="#000000" stroke-width="0.24" fill="none" />
  <path d="M1113.483,175.7862 L1113.483,186.0712 L1115.249,186.0712 L1115.249,175.7862 z" stroke="#000000" stroke-width="0.24" fill="none" />
  <path d="M1050.654,175.4389 C1049.168,175.4389 1047.984,175.9535 1047.103,176.9826 C1046.222,178.0118 1045.781,179.3947 1045.781,181.1313 C1045.781,182.7522 1046.199,184.0435 1047.036,185.0051 C1047.872,185.9667 1049.001,186.4475 1050.422,186.4475 C1052.127,186.4475 1053.384,185.904 1054.195,184.817 C1055.005,183.7299 1055.41,182.3535 1055.41,180.6875 C1055.41,178.9637 1054.95,177.658 1054.031,176.7704 C1053.111,175.8827 1051.985,175.4389 1050.654,175.4389 z" stroke="#000000" stroke-width="0.24" fill="none" />
  <path d="M1071.282,154.8457 L1071.282,153.0608 L1069.632,153.0608 L1069.632,163.3941 L1071.369,163.3941 L1071.369,157.4508 C1071.369,156.7175 1071.603,156.0695 1072.073,155.5067 C1072.542,154.9438 1073.214,154.6624 1074.089,154.6624 L1074.374,154.6721 L1074.659,154.7107 L1074.659,152.8775 L1074.263,152.8389 C1073.411,152.8293 1072.803,153.0785 1072.275,153.577 C1071.748,154.0755 1071.417,154.4984 1071.282,154.8457 z" stroke="#000000" stroke-width="0.24" fill="none" />
  <path d="M1059.926,160.6443 C1059.926,161.146 1060.109,161.5416 1060.476,161.8311 C1060.842,162.1205 1061.276,162.2652 1061.778,162.2652 C1062.389,162.2652 1062.981,162.1237 1063.553,161.8407 C1064.518,161.3712 1065.001,160.6025 1065.001,159.5348 L1065.001,158.1358 L1064.181,158.4735 L1063.196,158.6664 L1062.145,158.8015 C1061.514,158.8851 1061.042,159.017 1060.727,159.1971 C1060.193,159.4994 1059.926,159.9818 1059.926,160.6443 z" stroke="#000000" stroke-width="0.24" fill="none" />
  <path d="M1041.43,174.1653 L1041.43,175.7862 L1039.992,175.7862 L1039.992,177.1563 L1041.43,177.1563 L1041.43,186.0712 L1043.147,186.0712 L1043.147,177.1563 L1044.884,177.1563 L1044.884,175.7862 L1043.167,175.7862 C1043.167,174.667 1043.218,173.9708 1043.321,173.6974 C1043.424,173.424 1043.739,173.2874 1044.267,173.2874 L1044.493,173.2922 L1044.884,173.3163 L1044.884,171.734 L1044.489,171.705 L1044.151,171.6954 C1042.993,171.6954 1042.212,171.9913 1041.806,172.583 C1041.581,172.9175 1041.456,173.4449 1041.43,174.1653 z" stroke="#000000" stroke-width="0.24" fill="none" />
  <path d="M1064.132,157.1324 L1061.363,157.4797 C1060.392,157.6019 1059.607,157.9267 1059.009,158.4542 C1058.411,158.9816 1058.112,159.7245 1058.112,160.6829 C1058.112,161.5577 1058.416,162.2861 1059.024,162.8682 C1059.631,163.4503 1060.415,163.7414 1061.373,163.7414 C1062.171,163.7414 1062.901,163.571 1063.563,163.2301 C1064.226,162.8891 1064.734,162.4871 1065.088,162.024 L1065.387,162.9792 C1065.657,163.4037 1066.091,163.616 1066.689,163.616 L1067.268,163.587 L1067.885,163.4423 L1067.885,162.1591 L1067.577,162.2025 L1067.316,162.217 L1066.848,162.053 L1066.737,161.6188 L1066.737,155.6658 C1066.737,154.6882 1066.361,153.9678 1065.609,153.5047 C1064.849,153.0415 1063.862,152.81 1062.646,152.81 C1061.598,152.81 1060.677,153.0592 1059.882,153.5577 C1059.088,154.0562 1058.675,154.9422 1058.642,156.2158 L1060.263,156.2158 C1060.328,155.6819 1060.466,155.2799 1060.678,155.0098 C1061.058,154.5209 1061.701,154.2765 1062.608,154.2765 C1063.393,154.2765 1063.996,154.41 1064.417,154.6769 C1064.838,154.9438 1065.049,155.3732 1065.049,155.965 L1064.933,156.6307 C1064.798,156.9137 1064.531,157.0809 1064.132,157.1324 z" stroke="#000000" stroke-width="0.24" fill="none" />
  <path d="M1051.705,162.2749 C1052.857,162.2749 1053.646,161.8391 1054.074,160.9675 C1054.502,160.096 1054.716,159.1263 1054.716,158.0586 C1054.716,157.0938 1054.561,156.3091 1054.253,155.7044 C1053.764,154.7525 1052.921,154.2765 1051.725,154.2765 C1050.663,154.2765 1049.892,154.6817 1049.409,155.4922 C1048.927,156.3026 1048.686,157.2803 1048.686,158.4252 C1048.686,159.5251 1048.927,160.4417 1049.409,161.175 C1049.892,161.9082 1050.657,162.2749 1051.705,162.2749 z" stroke="#000000" stroke-width="0.24" fill="none" />
  <path d="M1077.167,182.8294 L1075.498,182.8294 C1075.543,183.8586 1075.885,184.7221 1076.526,185.42 C1077.165,186.1179 1078.254,186.4668 1079.791,186.4668 C1081.219,186.4668 1082.282,186.1323 1082.98,185.4634 C1083.678,184.7944 1084.027,184.0001 1084.027,183.0803 C1084.027,182.1283 1083.689,181.4305 1083.014,180.9866 C1082.589,180.7036 1081.753,180.4109 1080.505,180.1086 L1079.357,179.8288 L1078.219,179.4043 C1077.775,179.1342 1077.553,178.774 1077.553,178.3237 C1077.553,177.9121 1077.722,177.5808 1078.06,177.33 C1078.397,177.0791 1078.894,176.9537 1079.55,176.9537 C1080.534,176.9537 1081.226,177.182 1081.625,177.6387 C1081.869,177.9603 1082.007,178.3173 1082.039,178.7096 L1083.68,178.7096 C1083.693,178.0407 1083.483,177.4168 1083.052,176.8379 C1082.364,175.9245 1081.242,175.4678 1079.685,175.4678 C1078.495,175.4678 1077.548,175.7702 1076.844,176.3748 C1076.14,176.9794 1075.787,177.7706 1075.787,178.7482 C1075.787,179.578 1076.16,180.2276 1076.907,180.6972 C1077.325,180.9673 1077.974,181.2117 1078.855,181.4305 L1080.235,181.7778 L1081.721,182.2698 C1082.113,182.5014 1082.31,182.8391 1082.31,183.2829 C1082.31,183.8682 1082.065,184.3008 1081.576,184.5806 C1081.087,184.8604 1080.521,185.0003 1079.878,185.0003 C1078.798,185.0003 1078.039,184.7205 1077.601,184.1609 C1077.363,183.8521 1077.219,183.4083 1077.167,182.8294 z" stroke="#000000" stroke-width="0.24" fill="none" />
  <path d="M1051.773,152.7617 C1050.287,152.7617 1049.104,153.2763 1048.222,154.3055 C1047.341,155.3346 1046.901,156.7175 1046.901,158.4542 C1046.901,160.0751 1047.319,161.3663 1048.155,162.3279 C1048.991,163.2896 1050.12,163.7704 1051.541,163.7704 C1053.246,163.7704 1054.503,163.2268 1055.314,162.1398 C1056.124,161.0528 1056.53,159.6763 1056.53,158.0104 C1056.53,156.2865 1056.07,154.9808 1055.15,154.0932 C1054.23,153.2056 1053.104,152.7617 1051.773,152.7617 z" stroke="#000000" stroke-width="0.24" fill="none" />
  <path d="M1040.996,162.188 C1041.935,162.188 1042.638,161.815 1043.104,161.0688 C1043.57,160.3227 1043.804,159.3386 1043.804,158.1165 C1043.804,157.0295 1043.57,156.129 1043.104,155.415 C1042.638,154.701 1041.951,154.344 1041.044,154.344 C1040.253,154.344 1039.56,154.6367 1038.965,155.222 C1038.37,155.8074 1038.073,156.7722 1038.073,158.1165 C1038.073,159.0878 1038.195,159.8757 1038.439,160.4803 C1038.896,161.6188 1039.748,162.188 1040.996,162.188 z" stroke="#000000" stroke-width="0.24" fill="none" />
  <path d="M1028.878,184.9038 C1029.688,184.9038 1030.362,184.5645 1030.899,183.8859 C1031.436,183.2073 1031.705,182.1927 1031.705,180.8419 C1031.705,180.0186 1031.586,179.3111 1031.348,178.7193 C1030.897,177.5808 1030.074,177.0116 1028.878,177.0116 C1027.675,177.0116 1026.852,177.613 1026.408,178.8158 C1026.17,179.459 1026.051,180.2759 1026.051,181.2664 C1026.051,182.064 1026.17,182.7426 1026.408,183.3022 C1026.858,184.3699 1027.681,184.9038 1028.878,184.9038 z" stroke="#000000" stroke-width="0.24" fill="none" />
  <path d="M1026.726,158.3481 C1026.726,159.4544 1026.961,160.3806 1027.431,161.1267 C1027.9,161.8729 1028.653,162.2459 1029.688,162.2459 C1030.492,162.2459 1031.153,161.9002 1031.671,161.2088 C1032.189,160.5173 1032.448,159.5251 1032.448,158.2323 C1032.448,156.9265 1032.181,155.9601 1031.647,155.333 C1031.113,154.7059 1030.454,154.3923 1029.669,154.3923 C1028.794,154.3923 1028.085,154.7268 1027.542,155.3957 C1026.998,156.0646 1026.726,157.0488 1026.726,158.3481 z" stroke="#000000" stroke-width="0.24" fill="none" />
  <path d="M1122.041,175.4389 C1120.555,175.4389 1119.372,175.9535 1118.49,176.9826 C1117.609,178.0118 1117.169,179.3947 1117.169,181.1313 C1117.169,182.7522 1117.587,184.0435 1118.423,185.0051 C1119.259,185.9667 1120.388,186.4475 1121.809,186.4475 C1123.514,186.4475 1124.771,185.904 1125.582,184.817 C1126.392,183.7299 1126.797,182.3535 1126.797,180.6875 C1126.797,178.9637 1126.338,177.658 1125.418,176.7704 C1124.498,175.8827 1123.372,175.4389 1122.041,175.4389 z" stroke="#000000" stroke-width="0.24" fill="none" />
  <path d="M1071.06,183.9679 L1071.06,186.0712 L1073.076,186.0712 L1073.076,183.9679 z" stroke="#000000" stroke-width="0.24" fill="none" />
  <path d="M1029.341,152.8775 C1027.913,152.8775 1026.815,153.4291 1026.046,154.5322 C1025.277,155.6353 1024.893,156.9394 1024.893,158.4445 C1024.893,160.0526 1025.314,161.3406 1026.157,162.3086 C1027,163.2767 1027.997,163.7607 1029.148,163.7607 C1029.862,163.7607 1030.495,163.6192 1031.049,163.3362 C1031.602,163.0532 1032.081,162.5933 1032.486,161.9565 L1032.486,163.3941 L1034.049,163.3941 L1034.049,149.1726 L1032.38,149.1726 L1032.38,154.3923 L1031.328,153.3792 C1030.795,153.0448 1030.132,152.8775 1029.341,152.8775 z" stroke="#000000" stroke-width="0.24" fill="none" />
  <path d="M1018.737,162.2749 C1019.889,162.2749 1020.678,161.8391 1021.106,160.9675 C1021.534,160.096 1021.748,159.1263 1021.748,158.0586 C1021.748,157.0938 1021.593,156.3091 1021.285,155.7044 C1020.796,154.7525 1019.953,154.2765 1018.757,154.2765 C1017.695,154.2765 1016.924,154.6817 1016.441,155.4922 C1015.959,156.3026 1015.718,157.2803 1015.718,158.4252 C1015.718,159.5251 1015.959,160.4417 1016.441,161.175 C1016.924,161.9082 1017.689,162.2749 1018.737,162.2749 z" stroke="#000000" stroke-width="0.24" fill="none" />
  <path d="M1017.628,184.952 C1018.779,184.952 1019.569,184.5163 1019.997,183.6447 C1020.424,182.7731 1020.638,181.8035 1020.638,180.7358 C1020.638,179.771 1020.484,178.9862 1020.175,178.3816 C1019.686,177.4297 1018.844,176.9537 1017.647,176.9537 C1016.586,176.9537 1015.814,177.3589 1015.332,178.1693 C1014.849,178.9798 1014.608,179.9575 1014.608,181.1024 C1014.608,182.2023 1014.849,183.1189 1015.332,183.8521 C1015.814,184.5854 1016.579,184.952 1017.628,184.952 z" stroke="#000000" stroke-width="0.24" fill="none" />
  <path d="M1018.805,152.7617 C1017.319,152.7617 1016.136,153.2763 1015.254,154.3055 C1014.373,155.3346 1013.933,156.7175 1013.933,158.4542 C1013.933,160.0751 1014.351,161.3663 1015.187,162.3279 C1016.023,163.2896 1017.152,163.7704 1018.573,163.7704 C1020.278,163.7704 1021.535,163.2268 1022.346,162.1398 C1023.156,161.0528 1023.562,159.6763 1023.562,158.0104 C1023.562,156.2865 1023.102,154.9808 1022.182,154.0932 C1021.262,153.2056 1020.136,152.7617 1018.805,152.7617 z" stroke="#000000" stroke-width="0.24" fill="none" />
  <path d="M1007.748,162.2749 C1008.899,162.2749 1009.689,161.8391 1010.117,160.9675 C1010.545,160.096 1010.758,159.1263 1010.758,158.0586 C1010.758,157.0938 1010.604,156.3091 1010.295,155.7044 C1009.806,154.7525 1008.964,154.2765 1007.767,154.2765 C1006.706,154.2765 1005.934,154.6817 1005.452,155.4922 C1004.969,156.3026 1004.728,157.2803 1004.728,158.4252 C1004.728,159.5251 1004.969,160.4417 1005.452,161.175 C1005.934,161.9082 1006.7,162.2749 1007.748,162.2749 z" stroke="#000000" stroke-width="0.24" fill="none" />
  <path d="M1103.594,181.0252 C1103.594,182.1315 1103.828,183.0578 1104.298,183.8039 C1104.767,184.55 1105.52,184.9231 1106.556,184.9231 C1107.359,184.9231 1108.02,184.5774 1108.538,183.8859 C1109.056,183.1945 1109.315,182.2023 1109.315,180.9094 C1109.315,179.6037 1109.048,178.6373 1108.514,178.0101 C1107.98,177.383 1107.321,177.0694 1106.536,177.0694 C1105.661,177.0694 1104.952,177.4039 1104.409,178.0729 C1103.865,178.7418 1103.594,179.7259 1103.594,181.0252 z" stroke="#000000" stroke-width="0.24" fill="none" />
  <path d="M1017.695,175.4389 C1016.21,175.4389 1015.026,175.9535 1014.145,176.9826 C1013.264,178.0118 1012.823,179.3947 1012.823,181.1313 C1012.823,182.7522 1013.241,184.0435 1014.077,185.0051 C1014.914,185.9667 1016.042,186.4475 1017.464,186.4475 C1019.168,186.4475 1020.426,185.904 1021.236,184.817 C1022.047,183.7299 1022.452,182.3535 1022.452,180.6875 C1022.452,178.9637 1021.992,177.658 1021.072,176.7704 C1020.153,175.8827 1019.027,175.4389 1017.695,175.4389 z" stroke="#000000" stroke-width="0.24" fill="none" />
  <path d="M1007.816,152.7617 C1006.33,152.7617 1005.146,153.2763 1004.265,154.3055 C1003.384,155.3346 1002.943,156.7175 1002.943,158.4542 C1002.943,160.0751 1003.361,161.3663 1004.198,162.3279 C1005.034,163.2896 1006.163,163.7704 1007.584,163.7704 C1009.289,163.7704 1010.546,163.2268 1011.357,162.1398 C1012.167,161.0528 1012.572,159.6763 1012.572,158.0104 C1012.572,156.2865 1012.112,154.9808 1011.193,154.0932 C1010.273,153.2056 1009.147,152.7617 1007.816,152.7617 z" stroke="#000000" stroke-width="0.24" fill="none" />
  <path d="M993.7582,158.3481 C993.7582,159.4544 993.993,160.3806 994.4626,161.1267 C994.9321,161.8729 995.6847,162.2459 996.7202,162.2459 C997.5242,162.2459 998.1852,161.9002 998.7029,161.2088 C999.2208,160.5173 999.4796,159.5251 999.4796,158.2323 C999.4796,156.9265 999.2127,155.9601 998.6788,155.333 C998.145,154.7059 997.4857,154.3923 996.7009,154.3923 C995.8262,154.3923 995.117,154.7268 994.5735,155.3957 C994.03,156.0646 993.7582,157.0488 993.7582,158.3481 z" stroke="#000000" stroke-width="0.24" fill="none" />
  <path d="M1066.255,171.898 L1066.255,173.8662 L1068.021,173.8662 L1068.021,171.898 z" stroke="#000000" stroke-width="0.24" fill="none" />
  <path d="M996.3729,152.8775 C994.9449,152.8775 993.8467,153.4291 993.0781,154.5322 C992.3094,155.6353 991.925,156.9394 991.925,158.4445 C991.925,160.0526 992.3464,161.3406 993.189,162.3086 C994.0316,163.2767 995.0286,163.7607 996.1799,163.7607 C996.8939,163.7607 997.5275,163.6192 998.0806,163.3362 C998.6338,163.0532 999.113,162.5933 999.5182,161.9565 L999.5182,163.3941 L1001.081,163.3941 L1001.081,149.1726 L999.4121,149.1726 L999.4121,154.3923 L998.3604,153.3792 C997.8266,153.0448 997.1641,152.8775 996.3729,152.8775 z" stroke="#000000" stroke-width="0.24" fill="none" />
  <path d="M1026.07,177.1563 L1026.07,175.7862 L1024.382,175.7862 L1024.382,190.191 L1026.118,190.191 L1026.118,184.9135 L1027.151,185.9072 C1027.678,186.2481 1028.331,186.4186 1029.109,186.4186 C1030.1,186.4186 1030.968,186.113 1031.714,185.502 C1032.891,184.5372 1033.48,182.9291 1033.48,180.6779 C1033.48,179.012 1033.072,177.7303 1032.255,176.8331 C1031.438,175.9358 1030.444,175.4871 1029.273,175.4871 C1028.482,175.4871 1027.794,175.6801 1027.209,176.066 C1026.797,176.3233 1026.417,176.6867 1026.07,177.1563 z" stroke="#000000" stroke-width="0.24" fill="none" />
  <path d="M1004.275,177.137 L1004.275,171.8498 L1002.538,171.8498 L1002.538,186.0712 L1004.275,186.0712 L1004.275,180.591 C1004.275,179.2146 1004.567,178.2787 1005.153,177.7834 C1005.738,177.2881 1006.391,177.0405 1007.111,177.0405 C1007.98,177.0405 1008.571,177.3235 1008.887,177.8895 C1009.08,178.2433 1009.176,178.7997 1009.176,179.5587 L1009.176,186.0712 L1010.961,186.0712 L1010.961,179.4429 C1010.961,178.4266 1010.816,177.6323 1010.527,177.0598 C1009.993,176.0114 1008.977,175.4871 1007.478,175.4871 C1006.642,175.4871 1005.944,175.6705 1005.384,176.0371 C1005.056,176.2494 1004.686,176.616 1004.275,177.137 z" stroke="#000000" stroke-width="0.24" fill="none" />
  <path d="M1113.483,171.898 L1113.483,173.8662 L1115.249,173.8662 L1115.249,171.898 z" stroke="#000000" stroke-width="0.24" fill="none" />
  <path d="M1106.208,175.5547 C1104.78,175.5547 1103.682,176.1062 1102.913,177.2094 C1102.145,178.3125 1101.76,179.6166 1101.76,181.1217 C1101.76,182.7297 1102.182,184.0178 1103.024,184.9858 C1103.867,185.9538 1104.864,186.4379 1106.015,186.4379 C1106.729,186.4379 1107.363,186.2964 1107.916,186.0134 C1108.469,185.7303 1108.948,185.2704 1109.354,184.6337 L1109.354,186.0712 L1110.917,186.0712 L1110.917,171.8498 L1109.247,171.8498 L1109.247,177.0694 L1108.196,176.0564 C1107.662,175.7219 1106.999,175.5547 1106.208,175.5547 z" stroke="#000000" stroke-width="0.24" fill="none" />
  <path d="M1038.169,154.3151 L1038.169,149.1726 L1036.481,149.1726 L1036.481,163.3941 L1038.082,163.3941 L1038.082,162.0723 L1039.115,163.1529 C1039.655,163.5324 1040.317,163.7221 1041.102,163.7221 C1042.504,163.7221 1043.601,163.1818 1044.392,162.1012 C1045.183,161.0206 1045.579,159.6634 1045.579,158.0297 C1045.579,156.3058 1045.178,155.0017 1044.378,154.1173 C1043.577,153.2329 1042.533,152.7907 1041.247,152.7907 C1040.629,152.7907 1040.057,152.9209 1039.529,153.1814 C1039.002,153.4419 1038.548,153.8198 1038.169,154.3151 z" stroke="#000000" stroke-width="0.24" fill="none" />
  <path d="M1066.255,175.7862 L1066.255,186.0712 L1068.021,186.0712 L1068.021,175.7862 z" stroke="#000000" stroke-width="0.24" fill="none" />
  <path d="M993.6907,182.8294 L992.0215,182.8294 C992.0666,183.8586 992.4091,184.7221 993.0491,185.42 C993.6891,186.1179 994.7777,186.4668 996.315,186.4668 C997.743,186.4668 998.8058,186.1323 999.5037,185.4634 C1000.202,184.7944 1000.551,184.0001 1000.551,183.0803 C1000.551,182.1283 1000.213,181.4305 999.5375,180.9866 C999.113,180.7036 998.2768,180.4109 997.029,180.1086 L995.8809,179.8288 L994.7424,179.4043 C994.2985,179.1342 994.0767,178.774 994.0767,178.3237 C994.0767,177.9121 994.2455,177.5808 994.5832,177.33 C994.9208,177.0791 995.4177,176.9537 996.0738,176.9537 C997.0579,176.9537 997.7494,177.182 998.1482,177.6387 C998.3926,177.9603 998.5309,178.3173 998.563,178.7096 L1000.203,178.7096 C1000.216,178.0407 1000.007,177.4168 999.5761,176.8379 C998.8879,175.9245 997.7654,175.4678 996.2089,175.4678 C995.0189,175.4678 994.0718,175.7702 993.3675,176.3748 C992.6631,176.9794 992.311,177.7706 992.311,178.7482 C992.311,179.578 992.6841,180.2276 993.4302,180.6972 C993.8483,180.9673 994.4979,181.2117 995.3792,181.4305 L996.7589,181.7778 L998.2447,182.2698 C998.637,182.5014 998.8332,182.8391 998.8332,183.2829 C998.8332,183.8682 998.5888,184.3008 998.0999,184.5806 C997.6111,184.8604 997.045,185.0003 996.4019,185.0003 C995.3212,185.0003 994.5623,184.7205 994.1249,184.1609 C993.8869,183.8521 993.7422,183.4083 993.6907,182.8294 z" stroke="#000000" stroke-width="0.24" fill="none" />
  <path d="M1123.45,149.2208 L1123.45,163.3941 L1125.186,163.3941 L1125.186,149.2208 z" stroke="#000000" stroke-width="0.24" fill="none" />
  <path d="M1035.921,183.9679 L1035.921,186.0712 L1037.937,186.0712 L1037.937,183.9679 z" stroke="#000000" stroke-width="0.24" fill="none" />
  <path d="M1061.913,171.898 L1061.913,186.0712 L1063.65,186.0712 L1063.65,171.898 z" stroke="#000000" stroke-width="0.24" fill="none" />
  <path d="M1109.932,153.0608 L1108.032,153.0608 L1111.013,163.3941 L1112.817,163.3941 L1114.853,155.3957 L1116.956,163.3941 L1118.76,163.3941 L1121.761,153.0608 L1120.024,153.0608 L1117.911,161.1557 L1115.885,153.0608 L1113.936,153.0608 L1111.92,161.2039 z" stroke="#000000" stroke-width="0.24" fill="none" />
  <path d="M1102.243,162.2749 C1103.394,162.2749 1104.184,161.8391 1104.611,160.9675 C1105.039,160.096 1105.253,159.1263 1105.253,158.0586 C1105.253,157.0938 1105.099,156.3091 1104.79,155.7044 C1104.301,154.7525 1103.458,154.2765 1102.262,154.2765 C1101.201,154.2765 1100.429,154.6817 1099.947,155.4922 C1099.464,156.3026 1099.223,157.2803 1099.223,158.4252 C1099.223,159.5251 1099.464,160.4417 1099.947,161.175 C1100.429,161.9082 1101.194,162.2749 1102.243,162.2749 z" stroke="#000000" stroke-width="0.24" fill="none" />
  <path d="M1093.241,182.5979 L1093.241,175.738 L1091.466,175.738 L1091.466,182.7619 C1091.466,183.6431 1091.61,184.3474 1091.9,184.8749 C1092.434,185.859 1093.437,186.351 1094.91,186.351 C1095.856,186.351 1096.66,186.0809 1097.322,185.5406 C1097.657,185.2704 1097.936,184.9392 1098.162,184.5468 L1098.142,186.0712 L1099.782,186.0712 L1099.782,175.738 L1098.046,175.738 L1098.046,180.813 C1098.046,181.8228 1097.927,182.6172 1097.689,183.1961 C1097.251,184.2767 1096.428,184.817 1095.219,184.817 C1094.376,184.817 1093.801,184.5082 1093.492,183.8907 C1093.325,183.5563 1093.241,183.1253 1093.241,182.5979 z" stroke="#000000" stroke-width="0.24" fill="none" />
  <path d="M1057.523,171.898 L1057.523,186.0712 L1059.26,186.0712 L1059.26,171.898 z" stroke="#000000" stroke-width="0.24" fill="none" />
  <path d="M1102.31,152.7617 C1100.824,152.7617 1099.641,153.2763 1098.76,154.3055 C1097.879,155.3346 1097.438,156.7175 1097.438,158.4542 C1097.438,160.0751 1097.856,161.3663 1098.692,162.3279 C1099.528,163.2896 1100.657,163.7704 1102.079,163.7704 C1103.783,163.7704 1105.041,163.2268 1105.851,162.1398 C1106.662,161.0528 1107.067,159.6763 1107.067,158.0104 C1107.067,156.2865 1106.607,154.9808 1105.687,154.0932 C1104.767,153.2056 1103.642,152.7617 1102.31,152.7617 z" stroke="#000000" stroke-width="0.24" fill="none" />
  <path d="M1085.879,165.864 L1096.869,165.864 L1096.869,164.8895 L1085.879,164.8895 z" stroke="#000000" stroke-width="0.24" fill="none" />
  <path d="M1088.118,183.9004 L1088.118,177.1563 L1089.768,177.1563 L1089.768,175.738 L1088.118,175.738 L1088.118,172.8532 L1086.362,172.8532 L1086.362,175.738 L1084.963,175.738 L1084.963,177.1563 L1086.362,177.1563 L1086.362,183.9969 C1086.362,184.6594 1086.507,185.1981 1086.796,185.6129 C1087.085,186.0278 1087.635,186.2353 1088.446,186.2353 L1089.145,186.1967 L1089.768,186.0712 L1089.768,184.7012 L1089.43,184.7253 L1089.16,184.7301 L1088.484,184.624 C1088.24,184.5018 1088.118,184.2606 1088.118,183.9004 z" stroke="#000000" stroke-width="0.24" fill="none" />
  <path d="M1050.586,184.952 C1051.738,184.952 1052.527,184.5163 1052.955,183.6447 C1053.383,182.7731 1053.596,181.8035 1053.596,180.7358 C1053.596,179.771 1053.442,178.9862 1053.133,178.3816 C1052.645,177.4297 1051.802,176.9537 1050.605,176.9537 C1049.544,176.9537 1048.772,177.3589 1048.29,178.1693 C1047.807,178.9798 1047.566,179.9575 1047.566,181.1024 C1047.566,182.2023 1047.807,183.1189 1048.29,183.8521 C1048.772,184.5854 1049.538,184.952 1050.586,184.952 z" stroke="#000000" stroke-width="0.24" fill="none" />
  <path d="M1077.264,158.3481 C1077.264,159.4544 1077.498,160.3806 1077.968,161.1267 C1078.437,161.8729 1079.19,162.2459 1080.226,162.2459 C1081.03,162.2459 1081.69,161.9002 1082.208,161.2088 C1082.726,160.5173 1082.985,159.5251 1082.985,158.2323 C1082.985,156.9265 1082.718,155.9601 1082.184,155.333 C1081.65,154.7059 1080.991,154.3923 1080.206,154.3923 C1079.331,154.3923 1078.622,154.7268 1078.079,155.3957 C1077.535,156.0646 1077.264,157.0488 1077.264,158.3481 z" stroke="#000000" stroke-width="0.24" fill="none" />
  <path d="M1079.878,152.8775 C1078.45,152.8775 1077.352,153.4291 1076.583,154.5322 C1075.815,155.6353 1075.43,156.9394 1075.43,158.4445 C1075.43,160.0526 1075.852,161.3406 1076.694,162.3086 C1077.537,163.2767 1078.534,163.7607 1079.685,163.7607 C1080.399,163.7607 1081.033,163.6192 1081.586,163.3362 C1082.139,163.0532 1082.618,162.5933 1083.024,161.9565 L1083.024,163.3941 L1084.587,163.3941 L1084.587,149.1726 L1082.917,149.1726 L1082.917,154.3923 L1081.866,153.3792 C1081.332,153.0448 1080.669,152.8775 1079.878,152.8775 z" stroke="#000000" stroke-width="0.24" fill="none" />
  <text x="161.088928150727" y="149.189442614167" font-family="Arial" text-anchor="middle" fill="#000000" font-size="9.85963821411133">14.50</text>
  <polygon fill="#000000" fill-opacity="1" points="141.2695,151.5342 132.7656,149.4082 132.7656,153.6602" xmlns="" />
  <polygon fill="#000000" fill-opacity="1" points="182.3719,151.5342 190.8758,153.6602 190.8758,149.4082" xmlns="" />
  <path d="M141.2696,187.7344 L141.2696,148.6996" stroke="#000000" stroke-width="0.24" fill="none" />
  <path d="M182.3719,187.7344 L182.3719,148.6996" stroke="#000000" stroke-width="0.24" fill="none" />
  <path d="M128.5137,151.5342 L195.1278,151.5342" stroke="#000000" stroke-width="0.24" fill="none" />
  <path d="M422.2015,487.0915 L376.2368,480.6907 L370.7144,519.9883 L416.6791,526.3891 z" stroke="#C80000" stroke-width="0.24" fill="none" />
  <path d="M435.9464,491.9515 L436.3351,489.1939 L542.2471,504.0691 L541.8583,506.8267 L544.1479,507.1507 L544.9327,507.2227 L544.8032,508.1155 L543.4639,517.6699 L545.8831,518.0083 L544.7816,525.8491 L542.3624,525.5107 L539.9575,542.6179 L537.0344,542.2075 L536.5735,545.4907 L523.736,543.6835 L524.0527,541.5667 L469.8368,534.0067 L469.5487,536.0731 L456.7184,534.2659 L457.0208,532.1347 L430.8127,528.4915 L431.2015,525.7339 L428.912,525.4099 L430.2943,515.5675 L432.584,515.8915 L434.5639,501.7939 L432.2744,501.4771 L433.6567,491.6275 z" stroke="#C80000" stroke-width="0.24" fill="none" />
  <path d="M734.9407,531.4147 L735.1567,533.2075 L747.9943,531.4075 L747.7567,529.5427 L773.8351,525.6547 L773.4536,522.8971 L775.736,522.5731 L774.3535,512.7307 L772.064,513.0547 L770.0839,498.9643 L772.3735,498.6403 L770.9335,488.8339 L768.7015,489.1147 L768.3127,486.3571 L662.4008,501.2323 L662.7968,503.9827 L659.7728,504.4147 L661.2487,514.8043 L658.8223,515.1427 L659.924,522.9907 L662.3503,522.6451 L664.7551,539.7595 L667.6783,539.3491 L668.1392,542.6251 L680.9695,540.8251 L680.7968,539.4787 z" stroke="#C80000" stroke-width="0.24" fill="none" />
  <path d="M782.4175,484.2979 L787.9327,523.5667 L833.9335,517.1515 L828.4111,477.8539 z" stroke="#C80000" stroke-width="0.24" fill="none" />
</svg>