<?xml version="1.0" encoding="utf-8" standalone="no"?>
<!DOCTYPE svg PUBLIC "-//W3C//DTD SVG 1.1//EN" "http://www.w3.org/Graphics/SVG/1.1/DTD/svg11.dtd">
<svg version="1.1" width="1224pt" height="792pt" viewBox="0 0 1224 792" overflow="visible" xmlns="http://www.w3.org/2000/svg">
  <path d="M1080.823,598.2585 C1079.395,598.2585 1078.297,598.8101 1077.528,599.9132 C1076.76,601.0163 1076.375,602.3204 1076.375,603.8256 C1076.375,605.4336 1076.797,606.7216 1077.639,607.6896 C1078.482,608.6577 1079.479,609.1417 1080.63,609.1417 C1081.344,609.1417 1081.978,609.0002 1082.531,608.7172 C1083.084,608.4341 1083.563,607.9743 1083.969,607.3375 L1083.969,608.7751 L1085.532,608.7751 L1085.532,594.5536 L1083.863,594.5536 L1083.863,599.7733 L1082.811,598.7603 C1082.277,598.4258 1081.615,598.2585 1080.823,598.2585 z" stroke="#000000" stroke-width="0.24" fill="none" />
  <path d="M1012.784,577.0189 L1012.784,571.8765 L1011.096,571.8765 L1011.096,586.0979 L1012.697,586.0979 L1012.697,584.7761 L1013.73,585.8567 C1014.27,586.2362 1014.932,586.426 1015.717,586.426 C1017.119,586.426 1018.216,585.8857 1019.007,584.8051 C1019.798,583.7244 1020.194,582.3672 1020.194,580.7335 C1020.194,579.0097 1019.794,577.7056 1018.993,576.8212 C1018.192,575.9367 1017.148,575.4945 1015.862,575.4945 C1015.244,575.4945 1014.672,575.6248 1014.145,575.8853 C1013.617,576.1458 1013.164,576.5237 1012.784,577.0189 z" stroke="#000000" stroke-width="0.24" fill="none" />
  <path d="M1003.493,607.6077 C1004.303,607.6077 1004.977,607.2684 1005.514,606.5898 C1006.051,605.9112 1006.32,604.8965 1006.32,603.5457 C1006.32,602.7224 1006.201,602.0149 1005.963,601.4232 C1005.513,600.2847 1004.689,599.7154 1003.493,599.7154 C1002.29,599.7154 1001.467,600.3168 1001.023,601.5196 C1000.785,602.1628 1000.666,602.9797 1000.666,603.9703 C1000.666,604.7678 1000.785,605.4465 1001.023,606.006 C1001.473,607.0738 1002.297,607.6077 1003.493,607.6077 z" stroke="#000000" stroke-width="0.24" fill="none" />
  <path d="M1067.856,605.3017 L1067.856,598.4418 L1066.081,598.4418 L1066.081,605.4658 C1066.081,606.3469 1066.226,607.0513 1066.515,607.5787 C1067.049,608.5628 1068.052,609.0549 1069.525,609.0549 C1070.471,609.0549 1071.275,608.7847 1071.937,608.2444 C1072.272,607.9743 1072.552,607.643 1072.777,607.2507 L1072.757,608.7751 L1074.398,608.7751 L1074.398,598.4418 L1072.661,598.4418 L1072.661,603.5168 C1072.661,604.5267 1072.542,605.321 1072.304,605.8999 C1071.867,606.9805 1071.043,607.5208 1069.834,607.5208 C1068.991,607.5208 1068.416,607.212 1068.107,606.5946 C1067.94,606.2601 1067.856,605.8292 1067.856,605.3017 z" stroke="#000000" stroke-width="0.24" fill="none" />
  <path d="M1036.528,594.6019 L1036.528,608.7751 L1038.265,608.7751 L1038.265,594.6019 z" stroke="#000000" stroke-width="0.24" fill="none" />
  <path d="M970.988,575.5814 C969.5601,575.5814 968.4619,576.1329 967.6932,577.236 C966.9246,578.3391 966.5402,579.6432 966.5402,581.1484 C966.5402,582.7564 966.9615,584.0444 967.8041,585.0125 C968.6468,585.9805 969.6437,586.4645 970.7951,586.4645 C971.509,586.4645 972.1426,586.3231 972.6958,586.04 C973.249,585.757 973.7281,585.2971 974.1334,584.6603 L974.1334,586.0979 L975.6964,586.0979 L975.6964,571.8765 L974.0272,571.8765 L974.0272,577.0961 L972.9756,576.0831 C972.4417,575.7486 971.7792,575.5814 970.988,575.5814 z" stroke="#000000" stroke-width="0.24" fill="none" />
  <path d="M1040.87,594.6019 L1040.87,596.5701 L1042.636,596.5701 L1042.636,594.6019 z" stroke="#000000" stroke-width="0.24" fill="none" />
  <path d="M993.4202,575.4656 C991.9343,575.4656 990.7508,575.9802 989.8696,577.0093 C988.9884,578.0385 988.5478,579.4213 988.5478,581.158 C988.5478,582.7789 988.9659,584.0702 989.8021,585.0318 C990.6382,585.9934 991.7671,586.4742 993.1886,586.4742 C994.8931,586.4742 996.1506,585.9307 996.9611,584.8436 C997.7715,583.7566 998.1768,582.3801 998.1768,580.7142 C998.1768,578.9904 997.7169,577.6847 996.7971,576.7971 C995.8773,575.9094 994.7516,575.4656 993.4202,575.4656 z" stroke="#000000" stroke-width="0.24" fill="none" />
  <path d="M1001.341,581.0519 C1001.341,582.1582 1001.576,583.0845 1002.046,583.8306 C1002.515,584.5767 1003.268,584.9498 1004.303,584.9498 C1005.107,584.9498 1005.768,584.6041 1006.286,583.9126 C1006.804,583.2211 1007.063,582.229 1007.063,580.9361 C1007.063,579.6304 1006.796,578.6639 1006.262,578.0368 C1005.728,577.4097 1005.069,577.0961 1004.284,577.0961 C1003.409,577.0961 1002.7,577.4306 1002.157,578.0995 C1001.613,578.7685 1001.341,579.7526 1001.341,581.0519 z" stroke="#000000" stroke-width="0.24" fill="none" />
  <path d="M1026.321,584.9787 C1027.472,584.9787 1028.261,584.543 1028.689,583.6714 C1029.117,582.7998 1029.331,581.8302 1029.331,580.7625 C1029.331,579.7976 1029.176,579.0129 1028.868,578.4083 C1028.379,577.4563 1027.536,576.9803 1026.34,576.9803 C1025.279,576.9803 1024.507,577.3856 1024.024,578.196 C1023.542,579.0065 1023.301,579.9841 1023.301,581.1291 C1023.301,582.229 1023.542,583.1456 1024.024,583.8788 C1024.507,584.6121 1025.272,584.9787 1026.321,584.9787 z" stroke="#000000" stroke-width="0.24" fill="none" />
  <path d="M1054.493,575.5814 C1053.065,575.5814 1051.967,576.1329 1051.198,577.236 C1050.43,578.3391 1050.046,579.6432 1050.046,581.1484 C1050.046,582.7564 1050.467,584.0444 1051.309,585.0125 C1052.152,585.9805 1053.149,586.4645 1054.3,586.4645 C1055.014,586.4645 1055.648,586.3231 1056.201,586.04 C1056.754,585.757 1057.233,585.2971 1057.639,584.6603 L1057.639,586.0979 L1059.202,586.0979 L1059.202,571.8765 L1057.533,571.8765 L1057.533,577.0961 L1056.481,576.0831 C1055.947,575.7486 1055.285,575.5814 1054.493,575.5814 z" stroke="#000000" stroke-width="0.24" fill="none" />
  <path d="M1038.747,579.8362 L1035.978,580.1835 C1035.007,580.3058 1034.222,580.6306 1033.624,581.158 C1033.026,581.6855 1032.727,582.4283 1032.727,583.3868 C1032.727,584.2615 1033.031,584.99 1033.639,585.5721 C1034.247,586.1542 1035.03,586.4453 1035.988,586.4453 C1036.786,586.4453 1037.516,586.2748 1038.178,585.9339 C1038.841,585.593 1039.349,585.191 1039.703,584.7278 L1040.002,585.683 C1040.272,586.1075 1040.706,586.3198 1041.304,586.3198 L1041.883,586.2909 L1042.501,586.1462 L1042.501,584.8629 L1042.192,584.9064 L1041.931,584.9208 L1041.464,584.7568 L1041.353,584.3226 L1041.353,578.3697 C1041.353,577.392 1040.976,576.6716 1040.224,576.2085 C1039.465,575.7454 1038.477,575.5138 1037.262,575.5138 C1036.213,575.5138 1035.292,575.7631 1034.497,576.2615 C1033.703,576.7601 1033.29,577.6461 1033.258,578.9196 L1034.879,578.9196 C1034.943,578.3857 1035.081,577.9838 1035.293,577.7136 C1035.673,577.2248 1036.316,576.9803 1037.223,576.9803 C1038.008,576.9803 1038.611,577.1138 1039.032,577.3807 C1039.453,577.6477 1039.664,578.077 1039.664,578.6688 L1039.548,579.3345 C1039.413,579.6176 1039.146,579.7848 1038.747,579.8362 z" stroke="#000000" stroke-width="0.24" fill="none" />
  <path d="M1010.536,606.6718 L1010.536,608.7751 L1012.553,608.7751 L1012.553,606.6718 z" stroke="#000000" stroke-width="0.24" fill="none" />
  <path d="M1076.858,584.9787 C1078.009,584.9787 1078.799,584.543 1079.227,583.6714 C1079.654,582.7998 1079.868,581.8302 1079.868,580.7625 C1079.868,579.7976 1079.714,579.0129 1079.405,578.4083 C1078.916,577.4563 1078.074,576.9803 1076.877,576.9803 C1075.816,576.9803 1075.044,577.3856 1074.562,578.196 C1074.079,579.0065 1073.838,579.9841 1073.838,581.1291 C1073.838,582.229 1074.079,583.1456 1074.562,583.8788 C1075.044,584.6121 1075.809,584.9787 1076.858,584.9787 z" stroke="#000000" stroke-width="0.24" fill="none" />
  <path d="M1076.925,575.4656 C1075.44,575.4656 1074.256,575.9802 1073.375,577.0093 C1072.494,578.0385 1072.053,579.4213 1072.053,581.158 C1072.053,582.7789 1072.471,584.0702 1073.307,585.0318 C1074.144,585.9934 1075.272,586.4742 1076.694,586.4742 C1078.398,586.4742 1079.656,585.9307 1080.466,584.8436 C1081.277,583.7566 1081.682,582.3801 1081.682,580.7142 C1081.682,578.9904 1081.222,577.6847 1080.302,576.7971 C1079.383,575.9094 1078.257,575.4656 1076.925,575.4656 z" stroke="#000000" stroke-width="0.24" fill="none" />
  <path d="M1098.065,571.9247 L1098.065,586.0979 L1099.801,586.0979 L1099.801,571.9247 z" stroke="#000000" stroke-width="0.24" fill="none" />
  <path d="M978.89,599.8408 L978.89,594.5536 L977.1533,594.5536 L977.1533,608.7751 L978.89,608.7751 L978.89,603.2949 C978.89,601.9184 979.1826,600.9825 979.7679,600.4872 C980.3533,599.992 981.0061,599.7443 981.7265,599.7443 C982.5948,599.7443 983.1866,600.0273 983.5018,600.5934 C983.6948,600.9471 983.7913,601.5035 983.7913,602.2625 L983.7913,608.7751 L985.5762,608.7751 L985.5762,602.1467 C985.5762,601.1305 985.4315,600.3361 985.142,599.7637 C984.6082,598.7152 983.5919,598.191 982.0931,598.191 C981.257,598.191 980.5591,598.3743 979.9995,598.7409 C979.6714,598.9532 979.3016,599.3198 978.89,599.8408 z" stroke="#000000" stroke-width="0.24" fill="none" />
  <path d="M992.3106,598.1428 C990.8248,598.1428 989.6413,598.6573 988.7601,599.6865 C987.8788,600.7156 987.4383,602.0985 987.4383,603.8352 C987.4383,605.4561 987.8564,606.7473 988.6925,607.7089 C989.5287,608.6705 990.6575,609.1514 992.079,609.1514 C993.7836,609.1514 995.0411,608.6078 995.8515,607.5208 C996.662,606.4338 997.0672,605.0573 997.0672,603.3914 C997.0672,601.6675 996.6073,600.3618 995.6875,599.4742 C994.7677,598.5865 993.6421,598.1428 992.3106,598.1428 z" stroke="#000000" stroke-width="0.24" fill="none" />
  <path d="M992.2431,607.6559 C993.3944,607.6559 994.184,607.2201 994.6117,606.3486 C995.0394,605.477 995.2533,604.5073 995.2533,603.4396 C995.2533,602.4748 995.0989,601.6901 994.7902,601.0854 C994.3014,600.1335 993.4587,599.6575 992.2624,599.6575 C991.201,599.6575 990.4292,600.0627 989.9468,600.8732 C989.4644,601.6837 989.2232,602.6613 989.2232,603.8063 C989.2232,604.9061 989.4644,605.8227 989.9468,606.556 C990.4292,607.2892 991.1946,607.6559 992.2431,607.6559 z" stroke="#000000" stroke-width="0.24" fill="none" />
  <path d="M993.3526,584.9787 C994.504,584.9787 995.2935,584.543 995.7213,583.6714 C996.149,582.7998 996.3629,581.8302 996.3629,580.7625 C996.3629,579.7976 996.2085,579.0129 995.8998,578.4083 C995.4109,577.4563 994.5683,576.9803 993.3719,576.9803 C992.3106,576.9803 991.5388,577.3856 991.0563,578.196 C990.5739,579.0065 990.3327,579.9841 990.3327,581.1291 C990.3327,582.229 990.5739,583.1456 991.0563,583.8788 C991.5388,584.6121 992.3042,584.9787 993.3526,584.9787 z" stroke="#000000" stroke-width="0.24" fill="none" />
  <path d="M1040.87,598.4901 L1040.87,608.7751 L1042.636,608.7751 L1042.636,598.4901 z" stroke="#000000" stroke-width="0.24" fill="none" />
  <path d="M1015.611,584.8919 C1016.55,584.8919 1017.253,584.5188 1017.719,583.7727 C1018.186,583.0266 1018.419,582.0424 1018.419,580.8203 C1018.419,579.7333 1018.186,578.8328 1017.719,578.1188 C1017.253,577.4048 1016.566,577.0479 1015.659,577.0479 C1014.868,577.0479 1014.175,577.3406 1013.58,577.9259 C1012.985,578.5112 1012.688,579.476 1012.688,580.8203 C1012.688,581.7916 1012.81,582.5795 1013.054,583.1841 C1013.511,584.3226 1014.363,584.8919 1015.611,584.8919 z" stroke="#000000" stroke-width="0.24" fill="none" />
  <path d="M1060.495,588.5679 L1071.484,588.5679 L1071.484,587.5934 L1060.495,587.5934 z" stroke="#000000" stroke-width="0.24" fill="none" />
  <path d="M1088.098,598.4901 L1088.098,608.7751 L1089.864,608.7751 L1089.864,598.4901 z" stroke="#000000" stroke-width="0.24" fill="none" />
  <path d="M1045.897,577.5496 L1045.897,575.7646 L1044.247,575.7646 L1044.247,586.0979 L1045.984,586.0979 L1045.984,580.1546 C1045.984,579.4213 1046.218,578.7733 1046.688,578.2105 C1047.157,577.6477 1047.83,577.3663 1048.704,577.3663 L1048.989,577.3759 L1049.274,577.4145 L1049.274,575.5814 L1048.878,575.5428 C1048.026,575.5331 1047.418,575.7823 1046.891,576.2808 C1046.363,576.7794 1046.032,577.2023 1045.897,577.5496 z" stroke="#000000" stroke-width="0.24" fill="none" />
  <path d="M1025.269,598.1428 C1023.783,598.1428 1022.6,598.6573 1021.718,599.6865 C1020.837,600.7156 1020.397,602.0985 1020.397,603.8352 C1020.397,605.4561 1020.815,606.7473 1021.651,607.7089 C1022.487,608.6705 1023.616,609.1514 1025.037,609.1514 C1026.742,609.1514 1027.999,608.6078 1028.81,607.5208 C1029.62,606.4338 1030.026,605.0573 1030.026,603.3914 C1030.026,601.6675 1029.566,600.3618 1028.646,599.4742 C1027.726,598.5865 1026.6,598.1428 1025.269,598.1428 z" stroke="#000000" stroke-width="0.24" fill="none" />
  <path d="M1034.541,583.3481 C1034.541,583.8499 1034.724,584.2455 1035.091,584.5349 C1035.457,584.8243 1035.892,584.9691 1036.393,584.9691 C1037.004,584.9691 1037.596,584.8276 1038.169,584.5446 C1039.133,584.075 1039.616,583.3063 1039.616,582.2386 L1039.616,580.8397 L1038.796,581.1773 L1037.812,581.3703 L1036.76,581.5054 C1036.13,581.589 1035.657,581.7208 1035.342,581.9009 C1034.808,582.2032 1034.541,582.6857 1034.541,583.3481 z" stroke="#000000" stroke-width="0.24" fill="none" />
  <path d="M1016.045,596.8692 L1016.045,598.4901 L1014.608,598.4901 L1014.608,599.8601 L1016.045,599.8601 L1016.045,608.7751 L1017.763,608.7751 L1017.763,599.8601 L1019.499,599.8601 L1019.499,598.4901 L1017.782,598.4901 C1017.782,597.3709 1017.833,596.6746 1017.936,596.4012 C1018.039,596.1279 1018.354,595.9912 1018.882,595.9912 L1019.109,595.996 L1019.499,596.0201 L1019.499,594.4378 L1019.104,594.4089 L1018.766,594.3992 C1017.608,594.3992 1016.827,594.6951 1016.422,595.2869 C1016.196,595.6213 1016.071,596.1488 1016.045,596.8692 z" stroke="#000000" stroke-width="0.24" fill="none" />
  <path d="M1025.201,607.6559 C1026.353,607.6559 1027.142,607.2201 1027.57,606.3486 C1027.998,605.477 1028.212,604.5073 1028.212,603.4396 C1028.212,602.4748 1028.057,601.6901 1027.749,601.0854 C1027.26,600.1335 1026.417,599.6575 1025.221,599.6575 C1024.159,599.6575 1023.388,600.0627 1022.905,600.8732 C1022.423,601.6837 1022.182,602.6613 1022.182,603.8063 C1022.182,604.9061 1022.423,605.8227 1022.905,606.556 C1023.388,607.2892 1024.153,607.6559 1025.201,607.6559 z" stroke="#000000" stroke-width="0.24" fill="none" />
  <path d="M1062.733,606.6042 L1062.733,599.8601 L1064.383,599.8601 L1064.383,598.4418 L1062.733,598.4418 L1062.733,595.557 L1060.977,595.557 L1060.977,598.4418 L1059.578,598.4418 L1059.578,599.8601 L1060.977,599.8601 L1060.977,606.7007 C1060.977,607.3632 1061.122,607.9019 1061.411,608.3168 C1061.701,608.7317 1062.25,608.9391 1063.061,608.9391 L1063.76,608.9005 L1064.383,608.7751 L1064.383,607.405 L1064.045,607.4291 L1063.775,607.434 L1063.1,607.3278 C1062.855,607.2056 1062.733,606.9644 1062.733,606.6042 z" stroke="#000000" stroke-width="0.24" fill="none" />
  <path d="M1096.589,607.6559 C1097.74,607.6559 1098.529,607.2201 1098.957,606.3486 C1099.385,605.477 1099.599,604.5073 1099.599,603.4396 C1099.599,602.4748 1099.444,601.6901 1099.136,601.0854 C1098.647,600.1335 1097.804,599.6575 1096.608,599.6575 C1095.547,599.6575 1094.775,600.0627 1094.292,600.8732 C1093.81,601.6837 1093.569,602.6613 1093.569,603.8063 C1093.569,604.9061 1093.81,605.8227 1094.292,606.556 C1094.775,607.2892 1095.54,607.6559 1096.589,607.6559 z" stroke="#000000" stroke-width="0.24" fill="none" />
  <path d="M1051.879,581.0519 C1051.879,582.1582 1052.114,583.0845 1052.583,583.8306 C1053.053,584.5767 1053.805,584.9498 1054.841,584.9498 C1055.645,584.9498 1056.306,584.6041 1056.823,583.9126 C1057.341,583.2211 1057.6,582.229 1057.6,580.9361 C1057.6,579.6304 1057.333,578.6639 1056.799,578.0368 C1056.265,577.4097 1055.606,577.0961 1054.821,577.0961 C1053.947,577.0961 1053.237,577.4306 1052.694,578.0995 C1052.151,578.7685 1051.879,579.7526 1051.879,581.0519 z" stroke="#000000" stroke-width="0.24" fill="none" />
  <path d="M1032.138,594.6019 L1032.138,608.7751 L1033.875,608.7751 L1033.875,594.6019 z" stroke="#000000" stroke-width="0.24" fill="none" />
  <path d="M1051.782,605.5333 L1050.113,605.5333 C1050.158,606.5624 1050.501,607.426 1051.141,608.1238 C1051.781,608.8217 1052.869,609.1707 1054.406,609.1707 C1055.834,609.1707 1056.897,608.8362 1057.595,608.1672 C1058.293,607.4983 1058.642,606.7039 1058.642,605.7841 C1058.642,604.8322 1058.304,604.1343 1057.629,603.6905 C1057.204,603.4075 1056.368,603.1148 1055.12,602.8125 L1053.972,602.5327 L1052.834,602.1082 C1052.39,601.838 1052.168,601.4778 1052.168,601.0276 C1052.168,600.6159 1052.337,600.2847 1052.675,600.0338 C1053.012,599.783 1053.509,599.6575 1054.165,599.6575 C1055.149,599.6575 1055.841,599.8859 1056.24,600.3425 C1056.484,600.6641 1056.622,601.0211 1056.655,601.4135 L1058.295,601.4135 C1058.308,600.7446 1058.099,600.1206 1057.668,599.5417 C1056.979,598.6284 1055.857,598.1717 1054.3,598.1717 C1053.11,598.1717 1052.163,598.474 1051.459,599.0786 C1050.755,599.6832 1050.402,600.4744 1050.402,601.4521 C1050.402,602.2818 1050.776,602.9315 1051.522,603.401 C1051.94,603.6711 1052.589,603.9156 1053.471,604.1343 L1054.85,604.4816 L1056.336,604.9737 C1056.729,605.2053 1056.925,605.5429 1056.925,605.9868 C1056.925,606.5721 1056.68,607.0046 1056.191,607.2844 C1055.703,607.5642 1055.137,607.7041 1054.493,607.7041 C1053.413,607.7041 1052.654,607.4243 1052.216,606.8647 C1051.978,606.556 1051.834,606.1122 1051.782,605.5333 z" stroke="#000000" stroke-width="0.24" fill="none" />
  <path d="M1084.548,575.7646 L1082.647,575.7646 L1085.628,586.0979 L1087.432,586.0979 L1089.468,578.0995 L1091.571,586.0979 L1093.376,586.0979 L1096.376,575.7646 L1094.64,575.7646 L1092.527,583.8595 L1090.5,575.7646 L1088.552,575.7646 L1086.535,583.9078 z" stroke="#000000" stroke-width="0.24" fill="none" />
  <path d="M1088.098,594.6019 L1088.098,596.5701 L1089.864,596.5701 L1089.864,594.6019 z" stroke="#000000" stroke-width="0.24" fill="none" />
  <path d="M968.3058,605.5333 L966.6367,605.5333 C966.6818,606.5624 967.0242,607.426 967.6642,608.1238 C968.3043,608.8217 969.3929,609.1707 970.9302,609.1707 C972.3581,609.1707 973.421,608.8362 974.1189,608.1672 C974.8168,607.4983 975.1657,606.7039 975.1657,605.7841 C975.1657,604.8322 974.8281,604.1343 974.1526,603.6905 C973.7281,603.4075 972.892,603.1148 971.6442,602.8125 L970.496,602.5327 L969.3575,602.1082 C968.9137,601.838 968.6918,601.4778 968.6918,601.0276 C968.6918,600.6159 968.8607,600.2847 969.1983,600.0338 C969.536,599.783 970.0329,599.6575 970.689,599.6575 C971.6731,599.6575 972.3646,599.8859 972.7633,600.3425 C973.0078,600.6641 973.1461,601.0211 973.1782,601.4135 L974.8184,601.4135 C974.8312,600.7446 974.6222,600.1206 974.1913,599.5417 C973.5031,598.6284 972.3806,598.1717 970.824,598.1717 C969.6341,598.1717 968.687,598.474 967.9827,599.0786 C967.2783,599.6832 966.9261,600.4744 966.9261,601.4521 C966.9261,602.2818 967.2993,602.9315 968.0453,603.401 C968.4634,603.6711 969.1131,603.9156 969.9943,604.1343 L971.374,604.4816 L972.8598,604.9737 C973.2522,605.2053 973.4484,605.5429 973.4484,605.9868 C973.4484,606.5721 973.2039,607.0046 972.7151,607.2844 C972.2263,607.5642 971.6602,607.7041 971.017,607.7041 C969.9364,607.7041 969.1774,607.4243 968.7401,606.8647 C968.502,606.556 968.3573,606.1122 968.3058,605.5333 z" stroke="#000000" stroke-width="0.24" fill="none" />
  <path d="M1045.675,606.6718 L1045.675,608.7751 L1047.691,608.7751 L1047.691,606.6718 z" stroke="#000000" stroke-width="0.24" fill="none" />
  <path d="M968.3734,581.0519 C968.3734,582.1582 968.6082,583.0845 969.0777,583.8306 C969.5472,584.5767 970.2998,584.9498 971.3354,584.9498 C972.1394,584.9498 972.8003,584.6041 973.3181,583.9126 C973.8359,583.2211 974.0948,582.229 974.0948,580.9361 C974.0948,579.6304 973.8279,578.6639 973.294,578.0368 C972.7601,577.4097 972.1008,577.0961 971.3161,577.0961 C970.4413,577.0961 969.7322,577.4306 969.1887,578.0995 C968.6451,578.7685 968.3734,579.7526 968.3734,581.0519 z" stroke="#000000" stroke-width="0.24" fill="none" />
  <path d="M982.4308,575.4656 C980.945,575.4656 979.7615,575.9802 978.8803,577.0093 C977.9991,578.0385 977.5585,579.4213 977.5585,581.158 C977.5585,582.7789 977.9766,584.0702 978.8127,585.0318 C979.6489,585.9934 980.7778,586.4742 982.1993,586.4742 C983.9038,586.4742 985.1613,585.9307 985.9717,584.8436 C986.7822,583.7566 987.1874,582.3801 987.1874,580.7142 C987.1874,578.9904 986.7275,577.6847 985.8077,576.7971 C984.8879,575.9094 983.7623,575.4656 982.4308,575.4656 z" stroke="#000000" stroke-width="0.24" fill="none" />
  <path d="M982.3633,584.9787 C983.5146,584.9787 984.3042,584.543 984.7319,583.6714 C985.1597,582.7998 985.3735,581.8302 985.3735,580.7625 C985.3735,579.7976 985.2192,579.0129 984.9105,578.4083 C984.4216,577.4563 983.579,576.9803 982.3826,576.9803 C981.3213,576.9803 980.5494,577.3856 980.067,578.196 C979.5846,579.0065 979.3434,579.9841 979.3434,581.1291 C979.3434,582.229 979.5846,583.1456 980.067,583.8788 C980.5494,584.6121 981.3149,584.9787 982.3633,584.9787 z" stroke="#000000" stroke-width="0.24" fill="none" />
  <path d="M1078.209,603.7291 C1078.209,604.8354 1078.443,605.7616 1078.913,606.5078 C1079.383,607.2538 1080.135,607.627 1081.171,607.627 C1081.975,607.627 1082.636,607.2812 1083.153,606.5898 C1083.671,605.8983 1083.93,604.9061 1083.93,603.6133 C1083.93,602.3076 1083.663,601.3411 1083.129,600.714 C1082.595,600.0869 1081.936,599.7733 1081.151,599.7733 C1080.277,599.7733 1079.568,600.1078 1079.024,600.7767 C1078.48,601.4457 1078.209,602.4297 1078.209,603.7291 z" stroke="#000000" stroke-width="0.24" fill="none" />
  <path d="M1096.656,598.1428 C1095.17,598.1428 1093.987,598.6573 1093.105,599.6865 C1092.224,600.7156 1091.784,602.0985 1091.784,603.8352 C1091.784,605.4561 1092.202,606.7473 1093.038,607.7089 C1093.874,608.6705 1095.003,609.1514 1096.425,609.1514 C1098.129,609.1514 1099.386,608.6078 1100.197,607.5208 C1101.007,606.4338 1101.413,605.0573 1101.413,603.3914 C1101.413,601.6675 1100.953,600.3618 1100.033,599.4742 C1099.113,598.5865 1097.988,598.1428 1096.656,598.1428 z" stroke="#000000" stroke-width="0.24" fill="none" />
  <path d="M1000.685,599.8601 L1000.685,598.4901 L998.9968,598.4901 L998.9968,612.8948 L1000.734,612.8948 L1000.734,607.6173 L1001.766,608.6111 C1002.293,608.952 1002.946,609.1224 1003.724,609.1224 C1004.715,609.1224 1005.583,608.8169 1006.329,608.2058 C1007.507,607.241 1008.095,605.633 1008.095,603.3817 C1008.095,601.7158 1007.687,600.4342 1006.87,599.5369 C1006.053,598.6396 1005.059,598.191 1003.888,598.191 C1003.097,598.191 1002.409,598.384 1001.824,598.7699 C1001.412,599.0272 1001.033,599.3906 1000.685,599.8601 z" stroke="#000000" stroke-width="0.24" fill="none" />
  <path d="M1003.956,575.5814 C1002.528,575.5814 1001.43,576.1329 1000.661,577.236 C999.8925,578.3391 999.5082,579.6432 999.5082,581.1484 C999.5082,582.7564 999.9295,584.0444 1000.772,585.0125 C1001.615,585.9805 1002.612,586.4645 1003.763,586.4645 C1004.477,586.4645 1005.111,586.3231 1005.664,586.04 C1006.217,585.757 1006.696,585.2971 1007.101,584.6603 L1007.101,586.0979 L1008.664,586.0979 L1008.664,571.8765 L1006.995,571.8765 L1006.995,577.0961 L1005.944,576.0831 C1005.41,575.7486 1004.747,575.5814 1003.956,575.5814 z" stroke="#000000" stroke-width="0.24" fill="none" />
  <path d="M1026.388,575.4656 C1024.902,575.4656 1023.719,575.9802 1022.838,577.0093 C1021.956,578.0385 1021.516,579.4213 1021.516,581.158 C1021.516,582.7789 1021.934,584.0702 1022.77,585.0318 C1023.606,585.9934 1024.735,586.4742 1026.157,586.4742 C1027.861,586.4742 1029.119,585.9307 1029.929,584.8436 C1030.74,583.7566 1031.145,582.3801 1031.145,580.7142 C1031.145,578.9904 1030.685,577.6847 1029.765,576.7971 C1028.845,575.9094 1027.72,575.4656 1026.388,575.4656 z" stroke="#000000" stroke-width="0.24" fill="none" />
  <text x="163.944776504942" y="164.503533200092" font-family="Arial" text-anchor="middle" fill="#000000" font-size="9.85963821411133">12.40</text>
  <polygon fill="#000000" fill-opacity="1" points="147.1017,166.8483 138.5978,164.7223 138.5978,168.9743" xmlns="" />
  <polygon fill="#000000" fill-opacity="1" points="182.2514,166.8483 190.7553,168.9743 190.7553,164.7223" xmlns="" />
  <path d="M147.1018,215.1226 L147.1018,164.0136" stroke="#000000" stroke-width="0.24" fill="none" />
  <path d="M182.2514,215.1226 L182.2514,164.0136" stroke="#000000" stroke-width="0.24" fill="none" />
  <path d="M134.3459,166.8483 L195.0073,166.8483" stroke="#000000" stroke-width="0.24" fill="none" />
  <path d="M872.3276,497.2401 C872.5503,495.0433 870.0599,492.5529 867.8631,492.7756 C865.6663,492.5529 863.1759,495.0433 863.3986,497.2401 C863.1759,499.4369 865.6663,501.9273 867.8631,501.7046 C870.0599,501.9273 872.5503,499.4369 872.3276,497.2401 z" stroke="#000000" stroke-width="0.24" fill="none" />
  <path d="M1089.986,531.2593 C1090.208,529.0625 1087.718,526.5721 1085.521,526.7949 C1083.325,526.5721 1080.834,529.0625 1081.057,531.2593 C1080.834,533.4561 1083.325,535.9465 1085.521,535.7238 C1087.718,535.9465 1090.208,533.4561 1089.986,531.2593 z" stroke="#000000" stroke-width="0.24" fill="none" />
  <path d="M146.5127,531.2593 C146.7354,529.0625 144.245,526.5721 142.0482,526.7949 C139.8514,526.5721 137.361,529.0625 137.5837,531.2593 C137.361,533.4561 139.8514,535.9465 142.0482,535.7238 C144.245,535.9465 146.7354,533.4561 146.5127,531.2593 z" stroke="#000000" stroke-width="0.24" fill="none" />
  <path d="M610.9965,562.0314 C611.2192,559.8346 608.7288,557.3442 606.532,557.567 C604.3352,557.3442 601.8448,559.8346 602.0676,562.0314 C601.8448,564.2283 604.3352,566.7186 606.532,566.4959 C608.7288,566.7186 611.2192,564.2283 610.9965,562.0314 z" stroke="#000000" stroke-width="0.24" fill="none" />
  <path d="M1089.986,253.4666 C1090.208,251.2697 1087.718,248.7794 1085.521,249.0021 C1083.325,248.7794 1080.834,251.2697 1081.057,253.4666 C1080.834,255.6634 1083.325,258.1537 1085.521,257.931 C1087.718,258.1537 1090.208,255.6634 1089.986,253.4666 z" stroke="#000000" stroke-width="0.24" fill="none" />
  <path d="M146.5127,253.4666 C146.7354,251.2697 144.245,248.7794 142.0482,249.0021 C139.8514,248.7794 137.361,251.2697 137.5837,253.4666 C137.361,255.6634 139.8514,258.1537 142.0482,257.931 C144.245,258.1537 146.7354,255.6634 146.5127,253.4666 z" stroke="#000000" stroke-width="0.24" fill="none" />
  <path d="M779.2697,253.4666 C779.4924,251.2697 777.002,248.7794 774.8052,249.0021 C772.6084,248.7794 770.118,251.2697 770.3407,253.4666 C770.118,255.6634 772.6084,258.1537 774.8052,257.931 C777.002,258.1537 779.4924,255.6634 779.2697,253.4666 z" stroke="#000000" stroke-width="0.24" fill="none" />
  <path d="M346.0886,495.8217 C346.3113,493.6249 343.8209,491.1346 341.6241,491.3572 C339.4273,491.1346 336.9369,493.6249 337.1596,495.8217 C336.9369,498.0186 339.4273,500.5089 341.6241,500.2862 C343.8209,500.5089 346.3113,498.0186 346.0886,495.8217 z" stroke="#000000" stroke-width="0.24" fill="none" />
  <path d="M445.8848,253.4666 C446.1075,251.2697 443.6171,248.7794 441.4203,249.0021 C439.2235,248.7794 436.7331,251.2697 436.9558,253.4666 C436.7331,255.6634 439.2235,258.1537 441.4203,257.931 C443.6171,258.1537 446.1075,255.6634 445.8848,253.4666 z" stroke="#000000" stroke-width="0.24" fill="none" />
  <path d="M425.0515,491.7178 L379.0878,485.3172 L373.5655,524.6139 L419.5292,531.0145 z" stroke="#000000" stroke-width="0.24" fill="none" />
  <path d="M438.796,496.5777 L439.1848,493.8202 L545.0944,508.6951 L544.7056,511.4526 L546.9952,511.7766 L547.78,511.8486 L547.6503,512.7413 L546.3112,522.2955 L548.7303,522.6339 L547.6287,530.4745 L545.2096,530.1362 L542.8049,547.243 L539.8817,546.8326 L539.421,550.1157 L526.5836,548.3085 L526.9004,546.1918 L472.6856,538.632 L472.3976,540.6983 L459.5675,538.8912 L459.8699,536.76 L433.6625,533.1169 L434.0513,530.3594 L431.7617,530.0354 L433.1441,520.1932 L435.4337,520.5172 L437.4136,506.4199 L435.1241,506.1031 L436.5065,496.2537 z" stroke="#000000" stroke-width="0.24" fill="none" />
  <path d="M683.6409,544.1039 L737.7836,536.04 L737.9996,537.8328 L750.837,536.0328 L750.5994,534.1681 L776.6772,530.2802 L776.2956,527.5226 L778.5779,527.1986 L777.1956,517.3564 L774.906,517.6805 L772.9261,503.5904 L775.2156,503.2664 L773.7756,493.4602 L771.5437,493.741 L771.1549,490.9835 L665.2453,505.8583 L665.6413,508.6086 L662.6174,509.0406 L664.0933,519.43 L661.667,519.7684 L662.7686,527.6162 L665.1949,527.2706 L667.5996,544.3846 L670.5228,543.9742 L670.9836,547.2502 L683.8137,545.4503 z" stroke="#000000" stroke-width="0.24" fill="none" />
  <path d="M836.7742,521.7772 L831.252,482.4804 L785.2594,488.9243 L790.7745,528.1922 z" stroke="#000000" stroke-width="0.24" fill="none" />
  <path d="M1098.517,247.8017 L1098.704,248.2481 L1098.877,248.7017 L1099.028,249.1625 L1099.165,249.6305 L1099.287,250.0985 L1099.396,250.5665 L1099.489,251.0417 L1099.561,251.5241 L1099.619,251.9993 L1099.662,252.4816 L1099.683,252.964 L1099.691,253.4536 L1099.691,531.2377 L1099.683,531.7202 L1099.662,532.2097 L1099.619,532.6921 L1099.561,533.1673 L1099.489,533.6497 L1099.396,534.1249 L1099.287,534.5929 L1099.165,535.0609 L1099.028,535.5289 L1098.877,535.9824 L1098.704,536.436 L1098.517,536.8896 L1098.316,537.3288 L1098.107,537.7608 L1097.876,538.1856 L1097.631,538.6031 L1097.372,539.0135 L1097.099,539.4095 L1096.811,539.8055 L1096.516,540.1871 L1096.199,540.5543 L1095.875,540.9143 L1095.544,541.2599 L1095.191,541.5983 L1094.831,541.9223 L1094.464,542.2319 L1094.082,542.5343 L1093.693,542.8151 L1093.29,543.0887 L1092.887,543.3478 L1092.462,543.5927 L1092.037,543.8231 L1091.605,544.0391 L1091.166,544.2407 L1090.72,544.4279 L1090.266,544.5934 L1089.805,544.7518 L1089.344,544.8886 L1088.877,545.011 L1088.401,545.119 L1087.926,545.2054 L1087.451,545.2774 L1086.969,545.335 L1086.486,545.3782 L1086.004,545.407 L1085.521,545.4142 L865.0264,545.4142 L864.6304,545.4214 L864.2344,545.4358 L863.8384,545.4646 L863.4496,545.5006 L863.0536,545.551 L646.0289,576.0495 L645.6329,576.0999 L645.2441,576.1431 L644.8481,576.1647 L644.4521,576.1863 L644.0562,576.1863 L569.6818,576.1863 L569.2858,576.1863 L568.8899,576.1647 L568.4939,576.1431 L568.1051,576.0999 L567.7091,576.0495 L350.6844,545.551 L350.2884,545.5006 L349.8996,545.4646 L349.5036,545.4358 L349.1076,545.4214 L348.7116,545.4142 L142.0475,545.4142 L141.5651,545.407 L141.0827,545.3782 L140.6003,545.335 L140.118,545.2774 L139.6427,545.2054 L139.1676,545.119 L138.6924,545.011 L138.2244,544.8886 L137.7636,544.7518 L137.3028,544.5934 L136.8492,544.4279 L136.4028,544.2407 L135.9637,544.0391 L135.5316,543.8231 L135.0997,543.5927 L134.6821,543.3478 L134.2789,543.0887 L133.8757,542.8151 L133.4869,542.5343 L133.1053,542.2319 L132.7309,541.9223 L132.3781,541.5983 L132.0253,541.2599 L131.6942,540.9143 L131.3629,540.5543 L131.0533,540.1871 L130.7582,539.8055 L130.4702,539.4095 L130.1966,539.0135 L129.9374,538.6031 L129.6926,538.1856 L129.4622,537.7608 L129.2462,537.3288 L129.0518,536.8896 L128.8646,536.436 L128.6918,535.9824 L128.5406,535.5289 L128.4038,535.0609 L128.2814,534.5929 L128.1734,534.1249 L128.0798,533.6497 L128.0078,533.1673 L127.9502,532.6921 L127.907,532.2097 L127.8854,531.7202 L127.8782,531.2377 L127.8782,253.4536 L127.8854,252.964 L127.907,252.4816 L127.9502,251.9993 L128.0078,251.5241 L128.0798,251.0417 L128.1734,250.5665 L128.2814,250.0985 L128.4038,249.6305 L128.5406,249.1625 L128.6918,248.7017 L128.8646,248.2481 L129.0518,247.8017 L129.2462,247.3626 L129.4622,246.9306 L129.6926,246.5058 L129.9374,246.0882 L130.1966,245.6778 L130.4702,245.2746 L130.7582,244.8858 L131.0533,244.5042 L131.3629,244.137 L131.6942,243.777 L132.0253,243.4314 L132.3781,243.093 L132.7309,242.7691 L133.1053,242.4595 L133.4869,242.1571 L133.8757,241.8691 L134.2789,241.6027 L134.6821,241.3435 L135.0997,241.0987 L135.5316,240.8683 L135.9637,240.6523 L136.4028,240.4507 L136.8492,240.2635 L137.3028,240.0979 L137.7636,239.9395 L138.2244,239.8027 L138.6924,239.6803 L139.1676,239.5723 L139.6427,239.4859 L140.118,239.4067 L140.6003,239.3491 L141.0827,239.3131 L141.5651,239.2843 L142.0475,239.2771 L1085.521,239.2771 L1086.004,239.2843 L1086.486,239.3131 L1086.969,239.3491 L1087.451,239.4067 L1087.926,239.4859 L1088.401,239.5723 L1088.877,239.6803 L1089.344,239.8027 L1089.805,239.9395 L1090.266,240.0979 L1090.72,240.2635 L1091.166,240.4507 L1091.605,240.6523 L1092.037,240.8683 L1092.462,241.0987 L1092.887,241.3435 L1093.29,241.6027 L1093.693,241.8691 L1094.082,242.1571 L1094.464,242.4595 L1094.831,242.7691 L1095.191,243.093 L1095.544,243.4314 L1095.875,243.777 L1096.199,244.137 L1096.516,244.5042 L1096.811,244.8858 L1097.099,245.2746 L1097.372,245.6778 L1097.631,246.0882 L1097.876,246.5058 L1098.107,246.9306 L1098.316,247.3626 z" stroke="#000000" stroke-width="0.24" fill="none" />
  <path d="M182.2514,266.4997 L147.1018,266.4997 L147.1018,301.6493 L182.2514,301.6493 z" stroke="#000000" stroke-width="0.24" fill="none" />
  <path d="M989.2955,483.0132 L989.2955,492.9562 L986.9916,492.9562 L986.9916,507.1903 L989.2955,507.1903 L989.2955,517.126 L986.9916,517.126 L986.9916,519.9124 L947.3061,519.9124 L947.3061,517.126 L944.995,517.126 L944.995,507.1903 L947.3061,507.1903 L947.3061,492.9562 L944.995,492.9562 L944.995,483.0132 L947.3061,483.0132 L947.3061,480.2269 L986.9916,480.2269 L986.9916,483.0132 z" stroke="#000000" stroke-width="0.24" fill="none" />
  <path d="M821.4529,432.4776 L822.8353,442.3198 L820.5458,442.6437 L822.533,456.7338 L824.8153,456.417 L826.1976,466.2592 L823.9153,466.5832 L824.3041,469.3407 L785.0002,474.863 L784.6186,472.1055 L782.329,472.4223 L780.9467,462.5801 L783.229,462.2561 L781.2491,448.166 L778.9667,448.49 L777.5771,438.6478 L779.8667,438.3239 L779.4779,435.5663 L818.7746,430.044 L819.1634,432.8016 z" stroke="#000000" stroke-width="0.24" fill="none" />
  <path d="M840.7269,375.5052 L842.1093,385.3474 L839.827,385.6714 L841.8069,399.7615 L844.0892,399.4375 L845.4788,409.2797 L843.1893,409.6037 L843.5781,412.3612 L804.2814,417.8835 L803.8926,415.126 L801.603,415.45 L800.2206,405.6078 L802.5102,405.2838 L800.523,391.1937 L798.2407,391.5105 L796.8583,381.6683 L799.1407,381.3515 L798.7519,378.5868 L838.0558,373.0645 L838.4374,375.8221 z" stroke="#000000" stroke-width="0.24" fill="none" />
  <path d="M819.185,323.9112 L820.5674,333.7606 L818.285,334.0774 L820.265,348.1675 L822.5473,347.8507 L823.9297,357.6929 L821.6473,358.0168 L822.0361,360.7744 L782.7322,366.2967 L782.3506,363.5391 L780.0611,363.8631 L778.6787,354.0137 L780.9611,353.697 L778.9811,339.5997 L776.6988,339.9237 L775.3092,330.0815 L777.5988,329.7575 L777.21,326.9999 L816.5067,321.4777 L816.8954,324.2352 z" stroke="#000000" stroke-width="0.24" fill="none" />
  <path d="M784.885,274.5923 L786.2673,284.4345 L783.985,284.7585 L785.965,298.8486 L788.2545,298.5246 L789.6369,308.374 L787.3474,308.6908 L787.7361,311.4555 L748.4394,316.9778 L748.0506,314.213 L745.761,314.537 L744.3787,304.6949 L746.6683,304.3708 L744.6883,290.2808 L742.3987,290.6048 L741.0164,280.7554 L743.2987,280.4386 L742.9171,277.6811 L782.2139,272.1516 L782.6027,274.9163 z" stroke="#000000" stroke-width="0.24" fill="none" />
  <path d="M935.4408,483.0132 L935.4408,492.9562 L933.1296,492.9562 L933.1296,507.1903 L935.4408,507.1903 L935.4408,517.126 L933.1296,517.126 L933.1296,519.9124 L893.4442,519.9124 L893.4442,517.126 L891.1402,517.126 L891.1402,507.1903 L893.4442,507.1903 L893.4442,492.9562 L891.1402,492.9562 L891.1402,483.0132 L893.4442,483.0132 L893.4442,480.2269 L933.1296,480.2269 L933.1296,483.0132 z" stroke="#000000" stroke-width="0.24" fill="none" />
  <path d="M768.1598,439.8502 L769.5493,449.6924 L767.2598,450.0164 L769.2397,464.1065 L771.5293,463.7825 L772.9117,473.6246 L770.6221,473.9486 L771.0109,476.7062 L731.7142,482.2285 L731.3254,479.4709 L729.0358,479.7949 L727.6535,469.9527 L729.9431,469.6287 L727.9631,455.5387 L725.6735,455.8554 L724.2911,446.0133 L726.5807,445.6965 L726.1919,442.9317 L765.4886,437.4095 L765.8774,440.167 z" stroke="#000000" stroke-width="0.24" fill="none" />
  <path d="M787.4409,382.8707 L788.8233,392.7201 L786.5338,393.0369 L788.5137,407.127 L790.8033,406.8102 L792.1856,416.6523 L789.8961,416.9763 L790.2849,419.7339 L750.9882,425.2561 L750.5994,422.4986 L748.3098,422.8154 L746.9274,412.9732 L749.217,412.6564 L747.2371,398.5591 L744.9475,398.8831 L743.5651,389.041 L745.8547,388.7169 L745.4659,385.9594 L784.7626,380.4372 L785.1514,383.1947 z" stroke="#000000" stroke-width="0.24" fill="none" />
  <path d="M765.899,331.2839 L767.2814,341.126 L764.9918,341.45 L766.9718,355.5401 L769.2614,355.2161 L770.6437,365.0655 L768.3542,365.3823 L768.7429,368.147 L729.4462,373.6693 L729.0574,370.9046 L726.7679,371.2285 L725.3855,361.3864 L727.6751,361.0624 L725.6951,346.9723 L723.4056,347.2963 L722.0232,337.4469 L724.3127,337.1301 L723.924,334.3726 L763.2207,328.8431 L763.6094,331.6078 z" stroke="#000000" stroke-width="0.24" fill="none" />
  <path d="M731.599,281.965 L732.9814,291.8072 L730.6918,292.1311 L732.6718,306.2212 L734.9613,305.8972 L736.3437,315.7394 L734.0541,316.0634 L734.4429,318.8209 L695.1462,324.3432 L694.7574,321.5857 L692.4679,321.9097 L691.0855,312.0603 L693.3751,311.7435 L691.3951,297.6534 L689.1055,297.9702 L687.7232,288.128 L690.0128,287.804 L689.624,285.0465 L728.9207,279.5242 L729.3094,282.2818 z" stroke="#000000" stroke-width="0.24" fill="none" />
  <path d="M714.8738,447.5036 L716.2562,457.3458 L713.9666,457.6698 L715.9465,471.7599 L718.2361,471.4359 L719.6185,481.2781 L717.3361,481.6021 L717.7177,484.3596 L678.421,489.8819 L678.0322,487.1243 L675.7499,487.4483 L674.3603,477.6061 L676.6498,477.2822 L674.6699,463.1921 L672.3803,463.5089 L670.998,453.6667 L673.2875,453.3499 L672.8987,450.5852 L712.1954,445.0629 L712.5842,447.8204 z" stroke="#000000" stroke-width="0.24" fill="none" />
  <path d="M733.8669,390.5241 L735.2493,400.3735 L732.9598,400.6903 L734.9397,414.7804 L737.2292,414.4636 L738.6116,424.3058 L736.3221,424.6298 L736.7109,427.3873 L697.4142,432.9096 L697.0254,430.152 L694.7358,430.4688 L693.3535,420.6266 L695.643,420.3098 L693.663,406.2126 L691.3735,406.5366 L689.9911,396.6944 L692.2807,396.3704 L691.8919,393.6129 L731.1886,388.0906 L731.5774,390.8481 z" stroke="#000000" stroke-width="0.24" fill="none" />
  <path d="M712.325,338.9373 L713.7074,348.7794 L711.4178,349.1035 L713.3978,363.1935 L715.6873,362.8695 L717.0697,372.7189 L714.7802,373.0357 L715.1689,375.8004 L675.8723,381.3227 L675.4835,378.558 L673.1939,378.882 L671.8115,369.0398 L674.1011,368.7158 L672.1212,354.6257 L669.8316,354.9497 L668.4492,345.1003 L670.7388,344.7835 L670.35,342.026 L709.6467,336.4966 L710.0355,339.2613 z" stroke="#000000" stroke-width="0.24" fill="none" />
  <path d="M678.3058,289.3304 L679.6882,299.1798 L677.4058,299.4966 L679.3857,313.5867 L681.6681,313.2699 L683.0577,323.112 L680.7681,323.436 L681.1569,326.1936 L641.853,331.7159 L641.4714,328.9583 L639.1819,329.2751 L637.7995,319.4329 L640.0818,319.1089 L638.1019,305.0189 L635.8196,305.3428 L634.4372,295.5007 L636.7195,295.1767 L636.3307,292.4191 L675.6346,286.8969 L676.0162,289.6544 z" stroke="#000000" stroke-width="0.24" fill="none" />
  <path d="M661.2998,455.1571 L662.6821,464.9992 L660.3926,465.3232 L662.3726,479.4133 L664.6621,479.0893 L666.0445,488.9315 L663.7621,489.2555 L664.1437,492.013 L624.847,497.5353 L624.4582,494.7778 L622.1758,495.1017 L620.7935,485.2596 L623.0759,484.9356 L621.0959,470.8455 L618.8063,471.1623 L617.424,461.3201 L619.7135,461.0033 L619.3247,458.2386 L658.6215,452.7163 L659.0103,455.4738 z" stroke="#000000" stroke-width="0.24" fill="none" />
  <path d="M680.5737,397.8968 L681.9561,407.7389 L679.6738,408.0629 L681.6537,422.153 L683.936,421.829 L685.3184,431.6784 L683.0361,431.9952 L683.4249,434.7599 L644.121,440.2822 L643.7394,437.5175 L641.4498,437.8415 L640.0674,427.9993 L642.3498,427.6753 L640.3699,413.5852 L638.0875,413.9092 L636.6979,404.0598 L638.9875,403.743 L638.5987,400.9855 L677.9026,395.456 L678.2842,398.2207 z" stroke="#000000" stroke-width="0.24" fill="none" />
  <path d="M659.0319,346.5907 L660.4142,356.4329 L658.1246,356.7569 L660.1046,370.847 L662.3942,370.523 L663.7766,380.3723 L661.4941,380.6891 L661.8758,383.4539 L622.579,388.9762 L622.1902,386.2114 L619.9079,386.5354 L618.5255,376.6932 L620.8079,376.3692 L618.8279,362.2791 L616.5384,362.6031 L615.156,352.7538 L617.4456,352.437 L617.0568,349.6794 L656.3535,344.15 L656.7423,346.9147 z" stroke="#000000" stroke-width="0.24" fill="none" />
  <path d="M576.7593,298.3302 L575.3769,308.1796 L573.0873,307.8556 L571.1074,321.9457 L573.397,322.2697 L572.0074,332.1118 L569.725,331.7878 L569.3362,334.5526 L530.0396,329.0303 L530.4211,326.2656 L528.1388,325.9488 L529.5212,316.0994 L531.8107,316.4234 L533.7906,302.3333 L531.5011,302.0093 L532.8835,292.1671 L535.173,292.4911 L535.5618,289.7264 L574.8585,295.2487 L574.4697,298.0134 z" stroke="#000000" stroke-width="0.24" fill="none" />
  <path d="M567.6875,460.4706 L566.3051,470.3127 L564.0156,469.9959 L562.0356,484.086 L564.3251,484.4028 L562.9428,494.2522 L560.6533,493.9282 L560.2645,496.6857 L520.9678,491.1635 L521.3566,488.4059 L519.067,488.0819 L520.4493,478.2397 L522.7389,478.5637 L524.7189,464.4737 L522.4293,464.1497 L523.8117,454.3075 L526.1013,454.6243 L526.49,451.8667 L565.7867,457.389 L565.3979,460.1465 z" stroke="#000000" stroke-width="0.24" fill="none" />
  <path d="M548.6943,403.2102 L547.312,413.0596 L545.0224,412.7356 L543.0424,426.8257 L545.332,427.1497 L543.9496,436.9919 L541.6601,436.6679 L541.2713,439.4326 L501.9746,433.9031 L502.3634,431.1456 L500.0738,430.8288 L501.4562,420.9794 L503.7457,421.3034 L505.7257,407.2133 L503.4362,406.8893 L504.8185,397.0472 L507.1081,397.3712 L507.4969,394.6064 L546.7936,400.1287 L546.4048,402.8934 z" stroke="#000000" stroke-width="0.24" fill="none" />
  <path d="M542.7401,347.9371 L541.3577,357.7793 L539.0681,357.4625 L537.0882,371.5526 L539.3777,371.8766 L537.9954,381.7187 L535.7058,381.3947 L535.317,384.1523 L496.0203,378.63 L496.4091,375.8725 L494.1195,375.5485 L495.5019,365.7063 L497.7915,366.0303 L499.7714,351.9402 L497.4891,351.6162 L498.8715,341.774 L501.1538,342.0908 L501.5426,339.3333 L540.8393,344.8556 L540.4577,347.6131 z" stroke="#000000" stroke-width="0.24" fill="none" />
  <path d="M523.4661,290.6768 L522.0837,300.5262 L519.7942,300.2021 L517.8142,314.2922 L520.1038,314.6162 L518.7214,324.4584 L516.4318,324.1344 L516.043,326.8992 L476.7463,321.3769 L477.1351,318.6122 L474.8456,318.2953 L476.228,308.446 L478.5175,308.77 L480.4975,294.6799 L478.2079,294.3559 L479.5975,284.5137 L481.8798,284.8377 L482.2686,282.073 L521.5653,287.5952 L521.1765,290.36 z" stroke="#000000" stroke-width="0.24" fill="none" />
  <path d="M514.6823,452.8171 L513.2999,462.6593 L511.0104,462.3425 L509.0304,476.4326 L511.3128,476.7494 L509.9304,486.5988 L507.648,486.2747 L507.2592,489.0323 L467.9626,483.51 L468.3441,480.7525 L466.0618,480.4285 L467.4442,470.5863 L469.7337,470.9103 L471.7137,456.8202 L469.4241,456.4962 L470.8065,446.6541 L473.096,446.9709 L473.4848,444.2133 L512.7816,449.7356 L512.3928,452.4931 z" stroke="#000000" stroke-width="0.24" fill="none" />
  <path d="M495.4083,395.5568 L494.0188,405.4062 L491.7364,405.0822 L489.7564,419.1723 L492.0388,419.4963 L490.6564,429.3384 L488.3669,429.0145 L487.9853,431.7792 L448.6814,426.2497 L449.0702,423.4922 L446.7878,423.1754 L448.1702,413.326 L450.4525,413.65 L452.4325,399.5599 L450.1501,399.2359 L451.5325,389.3937 L453.8221,389.7177 L454.2036,386.953 L493.5076,392.4753 L493.1188,395.24 z" stroke="#000000" stroke-width="0.24" fill="none" />
  <path d="M489.454,340.5717 L488.0717,350.4138 L485.7821,350.0898 L483.8022,364.1799 L486.0917,364.5039 L484.7021,374.3461 L482.4198,374.0293 L482.031,376.7868 L442.7343,371.2646 L443.1159,368.4998 L440.8336,368.183 L442.2159,358.3409 L444.5055,358.6577 L446.4854,344.5676 L444.1959,344.2436 L445.5782,334.4014 L447.8678,334.7254 L448.2566,331.9678 L487.5533,337.4901 L487.1645,340.2477 z" stroke="#000000" stroke-width="0.24" fill="none" />
  <path d="M470.1801,283.3113 L468.7905,293.1535 L466.5082,292.8295 L464.5282,306.9268 L466.8106,307.2436 L465.4282,317.0858 L463.1386,316.769 L462.757,319.5265 L423.4532,314.0042 L423.8419,311.2467 L421.5596,310.9227 L422.942,301.0805 L425.2243,301.3973 L427.2115,287.3073 L424.9219,286.9904 L426.3043,277.1411 L428.5938,277.4651 L428.9826,274.7075 L468.2793,280.2298 L467.8905,282.9873 z" stroke="#000000" stroke-width="0.24" fill="none" />
  <path d="M461.1083,445.1637 L459.7259,455.0059 L457.4364,454.6891 L455.4564,468.7791 L457.746,469.0959 L456.3564,478.9453 L454.074,478.6213 L453.6853,481.3789 L414.3885,475.8566 L414.7701,473.0991 L412.4878,472.7751 L413.8701,462.9329 L416.1597,463.2569 L418.1397,449.1668 L415.8501,448.8428 L417.2325,439.0006 L419.522,439.3174 L419.9108,436.5599 L459.2076,442.0822 L458.8188,444.8397 z" stroke="#000000" stroke-width="0.24" fill="none" />
  <path d="M442.1151,388.1914 L440.7328,398.0335 L438.4432,397.7096 L436.4633,411.7997 L438.7528,412.1236 L437.3705,421.9658 L435.0809,421.649 L434.6921,424.4066 L395.3954,418.8843 L395.7842,416.1267 L393.4946,415.8028 L394.877,405.9606 L397.1666,406.2774 L399.1465,392.1873 L396.8569,391.8705 L398.2393,382.0211 L400.5289,382.3451 L400.9177,379.5876 L440.2144,385.1098 L439.8256,387.8674 z" stroke="#000000" stroke-width="0.24" fill="none" />
  <path d="M435.8801,332.9182 L434.4977,342.7604 L432.2081,342.4364 L430.2282,356.5265 L432.5178,356.8505 L431.1282,366.6927 L428.8458,366.3759 L428.457,369.1334 L389.1603,363.6111 L389.5491,360.8464 L387.2596,360.5296 L388.6419,350.6874 L390.9315,351.0042 L392.9114,336.9141 L390.6219,336.5901 L392.0042,326.748 L394.2938,327.072 L394.6826,324.3144 L433.9793,329.8367 L433.5905,332.5942 z" stroke="#000000" stroke-width="0.24" fill="none" />
  <path d="M416.8869,275.9387 L415.5045,285.7809 L413.215,285.4641 L411.235,299.5542 L413.5246,299.8782 L412.1422,309.7203 L409.8527,309.3964 L409.4639,312.1539 L370.1671,306.6316 L370.5559,303.8741 L368.2664,303.5501 L369.6487,293.7079 L371.9383,294.0319 L373.9183,279.9418 L371.6287,279.6178 L373.0111,269.7757 L375.3006,270.0924 L375.6894,267.3349 L414.9861,272.8572 L414.5974,275.6147 z" stroke="#000000" stroke-width="0.24" fill="none" />
  <path d="M407.8151,437.791 L406.4327,447.6404 L404.1432,447.3164 L402.1632,461.4065 L404.4528,461.7305 L403.0704,471.5727 L400.7809,471.2487 L400.3921,474.0134 L361.0953,468.4911 L361.4842,465.7264 L359.1946,465.4096 L360.577,455.5602 L362.8665,455.8842 L364.8465,441.7942 L362.5569,441.4702 L363.9465,431.628 L366.2289,431.952 L366.6176,429.1873 L405.9143,434.7167 L405.5255,437.4743 z" stroke="#000000" stroke-width="0.24" fill="none" />
  <path d="M388.8219,380.8187 L387.4395,390.6609 L385.15,390.3441 L383.17,404.4342 L385.4596,404.751 L384.0772,414.6004 L381.7877,414.2764 L381.3989,417.0339 L342.1022,411.5117 L342.491,408.7541 L340.2014,408.4301 L341.591,398.588 L343.8734,398.9119 L345.8533,384.8218 L343.571,384.4979 L344.9533,374.6557 L347.2357,374.9725 L347.6245,372.2149 L386.9284,377.7372 L386.5396,380.4948 z" stroke="#000000" stroke-width="0.24" fill="none" />
  <path d="M382.5869,325.5456 L381.2045,335.3878 L378.9149,335.071 L376.935,349.161 L379.2245,349.4778 L377.8422,359.3272 L375.5526,359.0032 L375.1638,361.7608 L335.8671,356.2385 L336.2559,353.481 L333.9664,353.157 L335.3488,343.3148 L337.6383,343.6388 L339.6183,329.5415 L337.3287,329.2247 L338.7183,319.3753 L341.0006,319.6993 L341.3894,316.9418 L380.6861,322.4641 L380.3045,325.2216 z" stroke="#000000" stroke-width="0.24" fill="none" />
  <path d="M356.9051,264.7574 L356.9051,274.6931 L354.5939,274.6931 L354.5939,288.9272 L356.9051,288.9272 L356.9051,298.863 L354.5939,298.863 L354.5939,301.6493 L314.9084,301.6493 L314.9084,298.863 L312.5972,298.863 L312.5972,288.9272 L314.9084,288.9272 L314.9084,274.6931 L312.5972,274.6931 L312.5972,264.7574 L314.9084,264.7574 L314.9084,261.971 L354.5939,261.971 L354.5939,264.7574 z" stroke="#000000" stroke-width="0.24" fill="none" />
  <path d="M314.9516,483.0132 L314.9516,492.9562 L312.6404,492.9562 L312.6404,507.1903 L314.9516,507.1903 L314.9516,517.126 L312.6404,517.126 L312.6404,519.9124 L272.9549,519.9124 L272.9549,517.126 L270.6438,517.126 L270.6438,507.1903 L272.9549,507.1903 L272.9549,492.9562 L270.6438,492.9562 L270.6438,483.0132 L272.9549,483.0132 L272.9549,480.2269 L312.6404,480.2269 L312.6404,483.0132 z" stroke="#000000" stroke-width="0.24" fill="none" />
  <path d="M348.6828,429.1584 L348.6828,439.1014 L346.3717,439.1014 L346.3717,453.3283 L348.6828,453.3283 L348.6828,463.2713 L346.3717,463.2713 L346.3717,466.0576 L306.6862,466.0576 L306.6862,463.2713 L304.3822,463.2713 L304.3822,453.3283 L306.6862,453.3283 L306.6862,439.1014 L304.3822,439.1014 L304.3822,429.1584 L306.6862,429.1584 L306.6862,426.3721 L346.3717,426.3721 L346.3717,429.1584 z" stroke="#000000" stroke-width="0.24" fill="none" />
  <path d="M329.1281,375.3036 L329.1281,385.2466 L326.8169,385.2466 L326.8169,399.4735 L329.1281,399.4735 L329.1281,409.4165 L326.8169,409.4165 L326.8169,412.2028 L287.1314,412.2028 L287.1314,409.4165 L284.8203,409.4165 L284.8203,399.4735 L287.1314,399.4735 L287.1314,385.2466 L284.8203,385.2466 L284.8203,375.3036 L287.1314,375.3036 L287.1314,372.5173 L326.8169,372.5173 L326.8169,375.3036 z" stroke="#000000" stroke-width="0.24" fill="none" />
  <path d="M322.8858,321.4489 L322.8858,331.3846 L320.5819,331.3846 L320.5819,345.6187 L322.8858,345.6187 L322.8858,355.5545 L320.5819,355.5545 L320.5819,358.3409 L280.8964,358.3409 L280.8964,355.5545 L278.5852,355.5545 L278.5852,345.6187 L280.8964,345.6187 L280.8964,331.3846 L278.5852,331.3846 L278.5852,321.4489 L280.8964,321.4489 L280.8964,318.6625 L320.5819,318.6625 L320.5819,321.4489 z" stroke="#000000" stroke-width="0.24" fill="none" />
  <path d="M303.0431,267.5869 L303.0431,277.5299 L300.7391,277.5299 L300.7391,291.7567 L303.0431,291.7567 L303.0431,301.6997 L300.7391,301.6997 L300.7391,304.4861 L261.0536,304.4861 L261.0536,301.6997 L258.7425,301.6997 L258.7425,291.7567 L261.0536,291.7567 L261.0536,277.5299 L258.7425,277.5299 L258.7425,267.5869 L261.0536,267.5869 L261.0536,264.8006 L300.7391,264.8006 L300.7391,267.5869 z" stroke="#000000" stroke-width="0.24" fill="none" />
  <path d="M1063.562,429.1584 L1063.562,439.1014 L1061.258,439.1014 L1061.258,453.3283 L1063.562,453.3283 L1063.562,463.2713 L1061.258,463.2713 L1061.258,466.0576 L1021.572,466.0576 L1021.572,463.2713 L1019.261,463.2713 L1019.261,453.3283 L1021.572,453.3283 L1021.572,439.1014 L1019.261,439.1014 L1019.261,429.1584 L1021.572,429.1584 L1021.572,426.3721 L1061.258,426.3721 L1061.258,429.1584 z" stroke="#000000" stroke-width="0.24" fill="none" />
  <path d="M1056.765,321.4489 L1056.765,331.3846 L1054.454,331.3846 L1054.454,345.6187 L1056.765,345.6187 L1056.765,355.5545 L1054.454,355.5545 L1054.454,358.3409 L1014.769,358.3409 L1014.769,355.5545 L1012.457,355.5545 L1012.457,345.6187 L1014.769,345.6187 L1014.769,331.3846 L1012.457,331.3846 L1012.457,321.4489 L1014.769,321.4489 L1014.769,318.6625 L1054.454,318.6625 L1054.454,321.4489 z" stroke="#000000" stroke-width="0.24" fill="none" />
  <path d="M993.5507,304.4429 L1013.35,304.4429 L1033.15,304.4429 L1033.15,301.131 L1037.758,301.131 L1037.758,303.3629 L1040.71,303.3629 L1040.71,306.6748 L1053.669,306.6748 L1053.669,303.3629 L1056.621,303.3629 L1056.621,286.0833 L1059.069,286.0833 L1059.069,278.1635 L1056.621,278.1635 L1056.621,268.5157 L1037.758,268.5157 L1037.758,270.8196 L1033.15,270.8196 L1033.15,264.8438 L1013.35,264.8438 L993.5507,264.8438 L993.5507,270.8196 L988.9427,270.8196 L988.9427,268.5157 L970.0792,268.5157 L970.0792,278.1635 L967.6312,278.1635 L967.6312,286.0833 L970.0792,286.0833 L970.0792,303.3629 L973.0311,303.3629 L973.0311,306.6748 L985.9908,306.6748 L985.9908,303.3629 L988.9427,303.3629 L988.9427,301.131 L993.5507,301.131 z" stroke="#000000" stroke-width="0.24" fill="none" />
  <path d="M989.2955,429.1584 L989.2955,439.1014 L986.9916,439.1014 L986.9916,453.3283 L989.2955,453.3283 L989.2955,463.2713 L986.9916,463.2713 L986.9916,466.0576 L947.3061,466.0576 L947.3061,463.2713 L944.995,463.2713 L944.995,453.3283 L947.3061,453.3283 L947.3061,439.1014 L944.995,439.1014 L944.995,429.1584 L947.3061,429.1584 L947.3061,426.3721 L986.9916,426.3721 L986.9916,429.1584 z" stroke="#000000" stroke-width="0.24" fill="none" />
  <path d="M1000.923,412.1596 L1020.723,412.1596 L1040.522,412.1596 L1040.522,408.8477 L1045.13,408.8477 L1045.13,411.0797 L1048.082,411.0797 L1048.082,414.3916 L1061.042,414.3916 L1061.042,411.0797 L1063.994,411.0797 L1063.994,393.8 L1066.442,393.8 L1066.442,385.8802 L1063.994,385.8802 L1063.994,376.2325 L1045.13,376.2325 L1045.13,378.5364 L1040.522,378.5364 L1040.522,372.5605 L1020.723,372.5605 L1000.923,372.5605 L1000.923,378.5364 L996.3154,378.5364 L996.3154,376.2325 L977.4518,376.2325 L977.4518,385.8802 L975.0039,385.8802 L975.0039,393.8 L977.4518,393.8 L977.4518,411.0797 L980.4037,411.0797 L980.4037,414.3916 L993.3635,414.3916 L993.3635,411.0797 L996.3154,411.0797 L996.3154,408.8477 L1000.923,408.8477 z" stroke="#000000" stroke-width="0.24" fill="none" />
  <path d="M989.2955,321.4489 L989.2955,331.3846 L986.9916,331.3846 L986.9916,345.6187 L989.2955,345.6187 L989.2955,355.5545 L986.9916,355.5545 L986.9916,358.3409 L947.3061,358.3409 L947.3061,355.5545 L944.995,355.5545 L944.995,345.6187 L947.3061,345.6187 L947.3061,331.3846 L944.995,331.3846 L944.995,321.4489 L947.3061,321.4489 L947.3061,318.6625 L986.9916,318.6625 L986.9916,321.4489 z" stroke="#000000" stroke-width="0.24" fill="none" />
  <path d="M954.7147,267.3061 L954.7147,277.2491 L952.4036,277.2491 L952.4036,291.476 L954.7147,291.476 L954.7147,301.4189 L952.4036,301.4189 L952.4036,304.2053 L912.7253,304.2053 L912.7253,301.4189 L910.4142,301.4189 L910.4142,291.476 L912.7253,291.476 L912.7253,277.2491 L910.4142,277.2491 L910.4142,267.3061 L912.7253,267.3061 L912.7253,264.5198 L952.4036,264.5198 L952.4036,267.3061 z" stroke="#000000" stroke-width="0.24" fill="none" />
  <path d="M935.4408,429.1584 L935.4408,439.1014 L933.1296,439.1014 L933.1296,453.3283 L935.4408,453.3283 L935.4408,463.2713 L933.1296,463.2713 L933.1296,466.0576 L893.4442,466.0576 L893.4442,463.2713 L891.1402,463.2713 L891.1402,453.3283 L893.4442,453.3283 L893.4442,439.1014 L891.1402,439.1014 L891.1402,429.1584 L893.4442,429.1584 L893.4442,426.3721 L933.1296,426.3721 L933.1296,429.1584 z" stroke="#000000" stroke-width="0.24" fill="none" />
  <path d="M955.5643,375.3036 L955.5643,385.2466 L953.2604,385.2466 L953.2604,399.4735 L955.5643,399.4735 L955.5643,409.4165 L953.2604,409.4165 L953.2604,412.2028 L913.5749,412.2028 L913.5749,409.4165 L911.2637,409.4165 L911.2637,399.4735 L913.5749,399.4735 L913.5749,385.2466 L911.2637,385.2466 L911.2637,375.3036 L913.5749,375.3036 L913.5749,372.5173 L953.2604,372.5173 L953.2604,375.3036 z" stroke="#000000" stroke-width="0.24" fill="none" />
  <path d="M935.4408,321.4489 L935.4408,331.3846 L933.1296,331.3846 L933.1296,345.6187 L935.4408,345.6187 L935.4408,355.5545 L933.1296,355.5545 L933.1296,358.3409 L893.4442,358.3409 L893.4442,355.5545 L891.1402,355.5545 L891.1402,345.6187 L893.4442,345.6187 L893.4442,331.3846 L891.1402,331.3846 L891.1402,321.4489 L893.4442,321.4489 L893.4442,318.6625 L933.1296,318.6625 L933.1296,321.4489 z" stroke="#000000" stroke-width="0.24" fill="none" />
  <path d="M900.86,267.3061 L900.86,277.2491 L898.5488,277.2491 L898.5488,291.476 L900.86,291.476 L900.86,301.4189 L898.5488,301.4189 L898.5488,304.2053 L858.8633,304.2053 L858.8633,301.4189 L856.5522,301.4189 L856.5522,291.476 L858.8633,291.476 L858.8633,277.2491 L856.5522,277.2491 L856.5522,267.3061 L858.8633,267.3061 L858.8633,264.5198 L898.5488,264.5198 L898.5488,267.3061 z" stroke="#000000" stroke-width="0.24" fill="none" />
  <path d="M1043.438,483.0132 L1043.438,492.9562 L1041.127,492.9562 L1041.127,507.1903 L1043.438,507.1903 L1043.438,517.126 L1041.127,517.126 L1041.127,519.9124 L1001.442,519.9124 L1001.442,517.126 L999.1378,517.126 L999.1378,507.1903 L1001.442,507.1903 L1001.442,492.9562 L999.1378,492.9562 L999.1378,483.0132 L1001.442,483.0132 L1001.442,480.2269 L1041.127,480.2269 L1041.127,483.0132 z" stroke="#000000" stroke-width="0.24" fill="none" />
  <path d="M881.586,429.1584 L881.586,439.1014 L879.2748,439.1014 L879.2748,453.3283 L881.586,453.3283 L881.586,463.2713 L879.2748,463.2713 L879.2748,466.0576 L839.5894,466.0576 L839.5894,463.2713 L837.2782,463.2713 L837.2782,453.3283 L839.5894,453.3283 L839.5894,439.1014 L837.2782,439.1014 L837.2782,429.1584 L839.5894,429.1584 L839.5894,426.3721 L879.2748,426.3721 L879.2748,429.1584 z" stroke="#000000" stroke-width="0.24" fill="none" />
  <path d="M901.4288,375.3036 L901.4288,385.2466 L899.1176,385.2466 L899.1176,399.4735 L901.4288,399.4735 L901.4288,409.4165 L899.1176,409.4165 L899.1176,412.2028 L859.4321,412.2028 L859.4321,409.4165 L857.121,409.4165 L857.121,399.4735 L859.4321,399.4735 L859.4321,385.2466 L857.121,385.2466 L857.121,375.3036 L859.4321,375.3036 L859.4321,372.5173 L899.1176,372.5173 L899.1176,375.3036 z" stroke="#000000" stroke-width="0.24" fill="none" />
  <path d="M881.6436,321.4489 L881.6436,331.3846 L879.3325,331.3846 L879.3325,345.6187 L881.6436,345.6187 L881.6436,355.5545 L879.3325,355.5545 L879.3325,358.3409 L839.647,358.3409 L839.647,355.5545 L837.3358,355.5545 L837.3358,345.6187 L839.647,345.6187 L839.647,331.3846 L837.3358,331.3846 L837.3358,321.4489 L839.647,321.4489 L839.647,318.6625 L879.3325,318.6625 L879.3325,321.4489 z" stroke="#000000" stroke-width="0.24" fill="none" />
  <path d="M838.1782,266.9389 L839.5605,276.7811 L837.271,277.1051 L839.251,291.1952 L841.5405,290.8712 L842.9229,300.7206 L840.6405,301.0374 L841.0221,303.8021 L801.7254,309.3243 L801.3366,306.5596 L799.0543,306.8836 L797.6647,297.0414 L799.9542,296.7174 L797.9743,282.6273 L795.6848,282.9514 L794.3024,273.102 L796.5919,272.7852 L796.2031,270.0276 L835.4998,264.4982 L835.8887,267.2629 z" stroke="#000000" stroke-width="0.24" fill="none" />
  <path d="M247.7699,483.0132 L247.7699,492.9562 L245.4588,492.9562 L245.4588,507.1903 L247.7699,507.1903 L247.7699,517.126 L245.4588,517.126 L245.4588,519.9124 L205.7805,519.9124 L205.7805,517.126 L203.4693,517.126 L203.4693,507.1903 L205.7805,507.1903 L205.7805,492.9562 L203.4693,492.9562 L203.4693,483.0132 L205.7805,483.0132 L205.7805,480.2269 L245.4588,480.2269 L245.4588,483.0132 z" stroke="#000000" stroke-width="0.24" fill="none" />
  <path d="M219.1434,466.0144 L238.9429,466.0144 L258.7425,466.0144 L258.7425,462.7025 L263.3504,462.7025 L263.3504,464.9344 L266.3023,464.9344 L266.3023,468.2464 L279.262,468.2464 L279.262,464.9344 L282.2139,464.9344 L282.2139,447.6548 L284.6619,447.6548 L284.6619,439.735 L282.2139,439.735 L282.2139,430.0872 L263.3504,430.0872 L263.3504,432.3912 L258.7425,432.3912 L258.7425,426.4153 L238.9429,426.4153 L219.1434,426.4153 L219.1434,432.3912 L214.5355,432.3912 L214.5355,430.0872 L195.6719,430.0872 L195.6719,439.735 L193.224,439.735 L193.224,447.6548 L195.6719,447.6548 L195.6719,464.9344 L198.6238,464.9344 L198.6238,468.2464 L211.5835,468.2464 L211.5835,464.9344 L214.5355,464.9344 L214.5355,462.7025 L219.1434,462.7025 z" stroke="#000000" stroke-width="0.24" fill="none" />
  <path d="M255.6393,375.3036 L255.6393,385.2466 L253.3282,385.2466 L253.3282,399.4735 L255.6393,399.4735 L255.6393,409.4165 L253.3282,409.4165 L253.3282,412.2028 L213.6427,412.2028 L213.6427,409.4165 L211.3316,409.4165 L211.3316,399.4735 L213.6427,399.4735 L213.6427,385.2466 L211.3316,385.2466 L211.3316,375.3036 L213.6427,375.3036 L213.6427,372.5173 L253.3282,372.5173 L253.3282,375.3036 z" stroke="#000000" stroke-width="0.24" fill="none" />
  <path d="M255.6393,321.4489 L255.6393,331.3846 L253.3282,331.3846 L253.3282,345.6187 L255.6393,345.6187 L255.6393,355.5545 L253.3282,355.5545 L253.3282,358.3409 L213.6427,358.3409 L213.6427,355.5545 L211.3316,355.5545 L211.3316,345.6187 L213.6427,345.6187 L213.6427,331.3846 L211.3316,331.3846 L211.3316,321.4489 L213.6427,321.4489 L213.6427,318.6625 L253.3282,318.6625 L253.3282,321.4489 z" stroke="#000000" stroke-width="0.24" fill="none" />
  <path d="M249.1883,267.5869 L249.1883,277.5299 L246.8771,277.5299 L246.8771,291.7567 L249.1883,291.7567 L249.1883,301.6997 L246.8771,301.6997 L246.8771,304.4861 L207.1916,304.4861 L207.1916,301.6997 L204.8877,301.6997 L204.8877,291.7567 L207.1916,291.7567 L207.1916,277.5299 L204.8877,277.5299 L204.8877,267.5869 L207.1916,267.5869 L207.1916,264.8006 L246.8771,264.8006 L246.8771,267.5869 z" stroke="#000000" stroke-width="0.24" fill="none" />
</svg>